<mxfile host="Electron" modified="2023-04-02T14:32:19.181Z" agent="Mozilla/5.0 (Windows NT 10.0; Win64; x64) AppleWebKit/537.36 (KHTML, like Gecko) draw.io/21.1.2 Chrome/106.0.5249.199 Electron/21.4.3 Safari/537.36" etag="ECeYPK6-l2S14CTpdwFj" version="21.1.2" type="device">
  <diagram name="Page-1" id="JN25qpC9fKc6JR2kzEcj">
    <mxGraphModel dx="2600" dy="1035" grid="1" gridSize="10" guides="1" tooltips="1" connect="1" arrows="1" fold="1" page="1" pageScale="1" pageWidth="827" pageHeight="1169" math="0" shadow="0">
      <root>
        <mxCell id="0" />
        <mxCell id="1" parent="0" />
        <mxCell id="IOF8uTJPf_rr452XmYYG-40" value="Nutrient Supply" style="verticalLabelPosition=bottom;verticalAlign=top;html=1;shape=mxgraph.basic.polygon;polyCoords=[[0.84,0],[0.84,0.22],[0.92,0.22],[0.92,0.63],[1,0.63],[1,1],[0,1],[0,0]];polyline=0;fillColor=none;dashed=1;strokeColor=#00a30b;" vertex="1" parent="1">
          <mxGeometry x="-353.33" y="630" width="493.33" height="460" as="geometry" />
        </mxCell>
        <mxCell id="Cc5eUVK9kJNkrveM7U8v-71" value="Root Spray" style="verticalLabelPosition=top;verticalAlign=bottom;html=1;shape=mxgraph.basic.polygon;polyCoords=[[0,0],[0.93,0],[0.93,0.44],[0.48,0.44],[0.48,0.63],[0.38,0.63],[0.38,0.91],[0,0.91]];polyline=0;fontFamily=Helvetica;fontSize=11;fontColor=default;fillColor=none;dashed=1;strokeColor=#ff0000;labelPosition=center;align=center;" parent="1" vertex="1">
          <mxGeometry x="-767" y="93.42" width="807" height="536.58" as="geometry" />
        </mxCell>
        <mxCell id="oA7SMQpWHTpef_Fw7DRh-51" style="edgeStyle=orthogonalEdgeStyle;rounded=0;orthogonalLoop=1;jettySize=auto;html=1;exitX=0.5;exitY=0;exitDx=0;exitDy=0;exitPerimeter=0;entryX=-0.02;entryY=0.474;entryDx=0;entryDy=0;entryPerimeter=0;endArrow=none;endFill=0;" parent="1" source="oA7SMQpWHTpef_Fw7DRh-1" target="oA7SMQpWHTpef_Fw7DRh-4" edge="1">
          <mxGeometry relative="1" as="geometry">
            <Array as="points">
              <mxPoint x="-717" y="238.41999999999996" />
            </Array>
          </mxGeometry>
        </mxCell>
        <mxCell id="oA7SMQpWHTpef_Fw7DRh-56" style="edgeStyle=orthogonalEdgeStyle;rounded=0;orthogonalLoop=1;jettySize=auto;html=1;endArrow=none;endFill=0;startArrow=none;entryX=0.047;entryY=0.871;entryDx=0;entryDy=0;entryPerimeter=0;" parent="1" source="oA7SMQpWHTpef_Fw7DRh-60" target="oA7SMQpWHTpef_Fw7DRh-16" edge="1">
          <mxGeometry relative="1" as="geometry">
            <mxPoint x="-620" y="500" as="targetPoint" />
            <Array as="points">
              <mxPoint x="-620" y="530" />
              <mxPoint x="-595" y="530" />
            </Array>
          </mxGeometry>
        </mxCell>
        <mxCell id="oA7SMQpWHTpef_Fw7DRh-1" value="Irrigation Pump" style="shape=mxgraph.pid.pumps_-_din.diaphragm;html=1;pointerEvents=1;align=center;verticalLabelPosition=bottom;verticalAlign=top;dashed=0;" parent="1" vertex="1">
          <mxGeometry x="-737" y="273.99999999999994" width="40" height="40" as="geometry" />
        </mxCell>
        <mxCell id="IOF8uTJPf_rr452XmYYG-10" style="edgeStyle=orthogonalEdgeStyle;rounded=0;orthogonalLoop=1;jettySize=auto;html=1;exitX=0.33;exitY=0;exitDx=0;exitDy=0;exitPerimeter=0;entryX=0.8;entryY=0;entryDx=0;entryDy=0;entryPerimeter=0;endArrow=none;endFill=0;" edge="1" parent="1" source="oA7SMQpWHTpef_Fw7DRh-2" target="oA7SMQpWHTpef_Fw7DRh-11">
          <mxGeometry relative="1" as="geometry" />
        </mxCell>
        <mxCell id="oA7SMQpWHTpef_Fw7DRh-2" value="" style="shape=mxgraph.pid.pumps.peristaltic;html=1;pointerEvents=1;align=center;verticalLabelPosition=bottom;verticalAlign=top;dashed=0;points=[[0.33,0,0,0,0],[0.5,1,0,0,0],[0.67,0,0,0,0]];" parent="1" vertex="1">
          <mxGeometry x="-210.74" y="760" width="40" height="46" as="geometry" />
        </mxCell>
        <mxCell id="oA7SMQpWHTpef_Fw7DRh-3" value="" style="verticalLabelPosition=bottom;align=center;html=1;verticalAlign=top;pointerEvents=1;dashed=0;shape=mxgraph.pid2valves.valve;valveType=gate;actuator=man;rotation=90;" parent="1" vertex="1">
          <mxGeometry x="-497" y="313.41999999999996" width="40" height="40" as="geometry" />
        </mxCell>
        <mxCell id="oA7SMQpWHTpef_Fw7DRh-4" value="" style="verticalLabelPosition=bottom;align=center;html=1;verticalAlign=top;pointerEvents=1;dashed=0;shape=mxgraph.pid2valves.valve;valveType=check;rotation=0;" parent="1" vertex="1">
          <mxGeometry x="-677" y="228.93999999999994" width="33.33" height="20" as="geometry" />
        </mxCell>
        <mxCell id="oA7SMQpWHTpef_Fw7DRh-47" style="edgeStyle=orthogonalEdgeStyle;rounded=0;orthogonalLoop=1;jettySize=auto;html=1;exitX=0;exitY=0.5;exitDx=0;exitDy=0;exitPerimeter=0;entryX=0.5;entryY=1;entryDx=0;entryDy=0;entryPerimeter=0;endArrow=none;endFill=0;" parent="1" source="oA7SMQpWHTpef_Fw7DRh-7" target="oA7SMQpWHTpef_Fw7DRh-40" edge="1">
          <mxGeometry relative="1" as="geometry">
            <Array as="points">
              <mxPoint x="-544" y="239.41999999999996" />
              <mxPoint x="-469" y="239.41999999999996" />
            </Array>
          </mxGeometry>
        </mxCell>
        <mxCell id="oA7SMQpWHTpef_Fw7DRh-7" value="" style="verticalLabelPosition=top;aspect=fixed;html=1;verticalAlign=bottom;fillColor=strokeColor;align=center;outlineConnect=0;shape=mxgraph.fluid_power.x11770;points=[[0,0.5,0]];rotation=-90;horizontal=1;labelPosition=center;" parent="1" vertex="1">
          <mxGeometry x="-567" y="146.4799999999999" width="46.82" height="27.96" as="geometry" />
        </mxCell>
        <mxCell id="oA7SMQpWHTpef_Fw7DRh-49" style="edgeStyle=orthogonalEdgeStyle;rounded=0;orthogonalLoop=1;jettySize=auto;html=1;exitX=0.47;exitY=1;exitDx=0;exitDy=0;exitPerimeter=0;entryX=0.5;entryY=1;entryDx=0;entryDy=0;entryPerimeter=0;endArrow=none;endFill=0;" parent="1" source="oA7SMQpWHTpef_Fw7DRh-8" target="oA7SMQpWHTpef_Fw7DRh-21" edge="1">
          <mxGeometry relative="1" as="geometry">
            <Array as="points">
              <mxPoint x="-575" y="239.41999999999996" />
              <mxPoint x="-608" y="239.41999999999996" />
            </Array>
          </mxGeometry>
        </mxCell>
        <mxCell id="oA7SMQpWHTpef_Fw7DRh-57" style="edgeStyle=orthogonalEdgeStyle;rounded=0;orthogonalLoop=1;jettySize=auto;html=1;exitX=0.47;exitY=0;exitDx=0;exitDy=0;exitPerimeter=0;endArrow=none;endFill=0;" parent="1" source="oA7SMQpWHTpef_Fw7DRh-8" target="oA7SMQpWHTpef_Fw7DRh-16" edge="1">
          <mxGeometry relative="1" as="geometry">
            <Array as="points">
              <mxPoint x="-478" y="420" />
              <mxPoint x="-550" y="420" />
            </Array>
          </mxGeometry>
        </mxCell>
        <mxCell id="oA7SMQpWHTpef_Fw7DRh-58" style="edgeStyle=orthogonalEdgeStyle;rounded=0;orthogonalLoop=1;jettySize=auto;html=1;exitX=0.47;exitY=0;exitDx=0;exitDy=0;exitPerimeter=0;entryX=1.02;entryY=0.695;entryDx=0;entryDy=0;entryPerimeter=0;endArrow=none;endFill=0;" parent="1" source="oA7SMQpWHTpef_Fw7DRh-8" target="oA7SMQpWHTpef_Fw7DRh-3" edge="1">
          <mxGeometry relative="1" as="geometry">
            <Array as="points">
              <mxPoint x="-575" y="420" />
              <mxPoint x="-485" y="420" />
            </Array>
          </mxGeometry>
        </mxCell>
        <mxCell id="oA7SMQpWHTpef_Fw7DRh-59" style="edgeStyle=orthogonalEdgeStyle;rounded=0;orthogonalLoop=1;jettySize=auto;html=1;exitX=0.47;exitY=0;exitDx=0;exitDy=0;exitPerimeter=0;entryX=0.998;entryY=0.695;entryDx=0;entryDy=0;entryPerimeter=0;endArrow=none;endFill=0;" parent="1" source="oA7SMQpWHTpef_Fw7DRh-8" target="oA7SMQpWHTpef_Fw7DRh-42" edge="1">
          <mxGeometry relative="1" as="geometry">
            <Array as="points">
              <mxPoint x="-575" y="420" />
              <mxPoint x="-427" y="420" />
            </Array>
          </mxGeometry>
        </mxCell>
        <mxCell id="oA7SMQpWHTpef_Fw7DRh-8" value="PRV - 8Bar" style="verticalLabelPosition=middle;aspect=fixed;html=1;verticalAlign=top;fillColor=strokeColor;align=center;outlineConnect=0;shape=mxgraph.fluid_power.x10500;points=[[0.47,0,0],[0.47,1,0]];rotation=-180;labelPosition=right;horizontal=0;" parent="1" vertex="1">
          <mxGeometry x="-617" y="295.65" width="79.06" height="75.54" as="geometry" />
        </mxCell>
        <mxCell id="oA7SMQpWHTpef_Fw7DRh-78" style="edgeStyle=orthogonalEdgeStyle;shape=connector;rounded=0;orthogonalLoop=1;jettySize=auto;html=1;exitX=0.5;exitY=1;exitDx=0;exitDy=0;exitPerimeter=0;entryX=0.5;entryY=0;entryDx=0;entryDy=0;entryPerimeter=0;labelBackgroundColor=default;strokeColor=default;fontFamily=Helvetica;fontSize=11;fontColor=default;endArrow=none;endFill=0;" parent="1" source="oA7SMQpWHTpef_Fw7DRh-9" target="oA7SMQpWHTpef_Fw7DRh-75" edge="1">
          <mxGeometry relative="1" as="geometry" />
        </mxCell>
        <mxCell id="oA7SMQpWHTpef_Fw7DRh-9" value="RO Water Tank" style="verticalLabelPosition=bottom;aspect=fixed;html=1;verticalAlign=top;fillColor=strokeColor;align=center;outlineConnect=0;shape=mxgraph.fluid_power.x12320;points=[[0.5,1,0]]" parent="1" vertex="1">
          <mxGeometry x="-80" y="452.0799999999999" width="37.06" height="92.92" as="geometry" />
        </mxCell>
        <mxCell id="oA7SMQpWHTpef_Fw7DRh-64" style="edgeStyle=orthogonalEdgeStyle;rounded=0;orthogonalLoop=1;jettySize=auto;html=1;exitX=0.5;exitY=0;exitDx=0;exitDy=0;exitPerimeter=0;entryX=0.5;entryY=0;entryDx=0;entryDy=0;entryPerimeter=0;endArrow=none;endFill=0;" parent="1" source="oA7SMQpWHTpef_Fw7DRh-10" target="oA7SMQpWHTpef_Fw7DRh-13" edge="1">
          <mxGeometry relative="1" as="geometry" />
        </mxCell>
        <mxCell id="oA7SMQpWHTpef_Fw7DRh-10" value="" style="shape=mxgraph.pid.pumps_-_din.centrifugal;html=1;pointerEvents=1;align=center;verticalLabelPosition=bottom;verticalAlign=top;dashed=0;rotation=-90;" parent="1" vertex="1">
          <mxGeometry x="-180" y="507.1" width="40" height="40" as="geometry" />
        </mxCell>
        <mxCell id="oA7SMQpWHTpef_Fw7DRh-11" value="Mixing Tank" style="shape=mxgraph.pid.vessels.tank_(covered);html=1;pointerEvents=1;align=center;verticalLabelPosition=bottom;verticalAlign=top;dashed=0;points=[[0.2,0,0,0,0],[0.4,0,0,0,0],[0.6,0,0,0,0],[0.8,0,0,0,0]];" parent="1" vertex="1">
          <mxGeometry x="-421.47" y="660" width="100" height="75" as="geometry" />
        </mxCell>
        <mxCell id="oA7SMQpWHTpef_Fw7DRh-53" value="" style="edgeStyle=orthogonalEdgeStyle;rounded=0;orthogonalLoop=1;jettySize=auto;html=1;endArrow=none;endFill=0;" parent="1" source="oA7SMQpWHTpef_Fw7DRh-12" target="oA7SMQpWHTpef_Fw7DRh-52" edge="1">
          <mxGeometry relative="1" as="geometry" />
        </mxCell>
        <mxCell id="oA7SMQpWHTpef_Fw7DRh-12" value="Plant Bed" style="shape=mxgraph.pid.vessels.container,_tank,_cistern;html=1;pointerEvents=1;align=center;verticalLabelPosition=bottom;verticalAlign=top;dashed=0;" parent="1" vertex="1">
          <mxGeometry x="-176.5" y="257.19" width="126.5" height="42.81" as="geometry" />
        </mxCell>
        <mxCell id="oA7SMQpWHTpef_Fw7DRh-67" style="edgeStyle=orthogonalEdgeStyle;shape=connector;rounded=0;orthogonalLoop=1;jettySize=auto;html=1;exitX=1.004;exitY=0.501;exitDx=0;exitDy=0;exitPerimeter=0;entryX=0.5;entryY=0;entryDx=0;entryDy=0;entryPerimeter=0;labelBackgroundColor=default;strokeColor=default;fontFamily=Helvetica;fontSize=11;fontColor=default;endArrow=none;endFill=0;startArrow=none;" parent="1" source="Cc5eUVK9kJNkrveM7U8v-2" target="oA7SMQpWHTpef_Fw7DRh-66" edge="1">
          <mxGeometry relative="1" as="geometry" />
        </mxCell>
        <mxCell id="oA7SMQpWHTpef_Fw7DRh-13" value="Mesh" style="verticalLabelPosition=middle;aspect=fixed;html=1;verticalAlign=middle;fillColor=strokeColor;align=center;outlineConnect=0;shape=mxgraph.fluid_power.x11980;points=[[0.5,0,0],[0.5,1,0]];rotation=90;labelPosition=left;horizontal=0;" parent="1" vertex="1">
          <mxGeometry x="-236.5" y="499.22" width="32.44" height="55.75" as="geometry" />
        </mxCell>
        <mxCell id="oA7SMQpWHTpef_Fw7DRh-16" value="Supply Tank" style="shape=mxgraph.pid.vessels.tank_(covered);html=1;pointerEvents=1;align=center;verticalLabelPosition=bottom;verticalAlign=top;dashed=0;" parent="1" vertex="1">
          <mxGeometry x="-697" y="459" width="100" height="75" as="geometry" />
        </mxCell>
        <mxCell id="oA7SMQpWHTpef_Fw7DRh-48" style="edgeStyle=orthogonalEdgeStyle;rounded=0;orthogonalLoop=1;jettySize=auto;html=1;exitX=0.5;exitY=1;exitDx=0;exitDy=0;exitPerimeter=0;entryX=0;entryY=0.5;entryDx=0;entryDy=0;entryPerimeter=0;endArrow=none;endFill=0;" parent="1" source="oA7SMQpWHTpef_Fw7DRh-21" target="oA7SMQpWHTpef_Fw7DRh-7" edge="1">
          <mxGeometry relative="1" as="geometry">
            <mxPoint x="-547" y="189.41999999999996" as="targetPoint" />
            <Array as="points">
              <mxPoint x="-608" y="239.41999999999996" />
              <mxPoint x="-544" y="239.41999999999996" />
            </Array>
          </mxGeometry>
        </mxCell>
        <mxCell id="oA7SMQpWHTpef_Fw7DRh-50" style="edgeStyle=orthogonalEdgeStyle;rounded=0;orthogonalLoop=1;jettySize=auto;html=1;exitX=0.5;exitY=1;exitDx=0;exitDy=0;exitPerimeter=0;entryX=1.03;entryY=0.517;entryDx=0;entryDy=0;entryPerimeter=0;endArrow=none;endFill=0;" parent="1" source="oA7SMQpWHTpef_Fw7DRh-21" target="oA7SMQpWHTpef_Fw7DRh-4" edge="1">
          <mxGeometry relative="1" as="geometry">
            <Array as="points">
              <mxPoint x="-608" y="239.41999999999996" />
            </Array>
          </mxGeometry>
        </mxCell>
        <mxCell id="oA7SMQpWHTpef_Fw7DRh-21" value="Irrigation Pressure Gauge" style="verticalLabelPosition=top;aspect=fixed;html=1;verticalAlign=bottom;fillColor=strokeColor;align=center;outlineConnect=0;shape=mxgraph.fluid_power.x11820;points=[[0.5,1,0]];labelPosition=center;" parent="1" vertex="1">
          <mxGeometry x="-627" y="132.40999999999997" width="37.34" height="56.1" as="geometry" />
        </mxCell>
        <mxCell id="oA7SMQpWHTpef_Fw7DRh-22" value="" style="verticalLabelPosition=bottom;align=center;html=1;verticalAlign=top;pointerEvents=1;dashed=0;shape=mxgraph.pid2valves.valve;valveType=gate;actuator=solenoid;rotation=0;points=[[0,0.7,0,0,0],[1,0.7,0,0,0]];" parent="1" vertex="1">
          <mxGeometry x="-400" y="211" width="40" height="40" as="geometry" />
        </mxCell>
        <mxCell id="oA7SMQpWHTpef_Fw7DRh-25" value="" style="shape=mxgraph.pid.feeders.spray_nozzle;html=1;pointerEvents=1;align=center;verticalLabelPosition=bottom;verticalAlign=top;dashed=0;rotation=-180;" parent="1" vertex="1">
          <mxGeometry x="-170" y="199.41999999999996" width="27" height="13.5" as="geometry" />
        </mxCell>
        <mxCell id="oA7SMQpWHTpef_Fw7DRh-30" style="edgeStyle=orthogonalEdgeStyle;rounded=0;orthogonalLoop=1;jettySize=auto;html=1;entryX=0.5;entryY=0;entryDx=0;entryDy=0;entryPerimeter=0;endArrow=none;endFill=0;exitX=0.5;exitY=0;exitDx=0;exitDy=0;exitPerimeter=0;" parent="1" source="oA7SMQpWHTpef_Fw7DRh-28" target="oA7SMQpWHTpef_Fw7DRh-25" edge="1">
          <mxGeometry relative="1" as="geometry">
            <mxPoint x="-190" y="226" as="sourcePoint" />
          </mxGeometry>
        </mxCell>
        <mxCell id="oA7SMQpWHTpef_Fw7DRh-35" style="edgeStyle=orthogonalEdgeStyle;rounded=0;orthogonalLoop=1;jettySize=auto;html=1;exitX=0.5;exitY=0;exitDx=0;exitDy=0;exitPerimeter=0;entryX=0.5;entryY=0;entryDx=0;entryDy=0;entryPerimeter=0;endArrow=none;endFill=0;" parent="1" source="oA7SMQpWHTpef_Fw7DRh-28" target="oA7SMQpWHTpef_Fw7DRh-31" edge="1">
          <mxGeometry relative="1" as="geometry" />
        </mxCell>
        <mxCell id="oA7SMQpWHTpef_Fw7DRh-36" style="edgeStyle=orthogonalEdgeStyle;rounded=0;orthogonalLoop=1;jettySize=auto;html=1;exitX=0.5;exitY=0;exitDx=0;exitDy=0;exitPerimeter=0;entryX=0.5;entryY=0;entryDx=0;entryDy=0;entryPerimeter=0;endArrow=none;endFill=0;" parent="1" source="oA7SMQpWHTpef_Fw7DRh-28" target="oA7SMQpWHTpef_Fw7DRh-32" edge="1">
          <mxGeometry relative="1" as="geometry" />
        </mxCell>
        <mxCell id="oA7SMQpWHTpef_Fw7DRh-37" style="edgeStyle=orthogonalEdgeStyle;rounded=0;orthogonalLoop=1;jettySize=auto;html=1;exitX=0.5;exitY=0;exitDx=0;exitDy=0;exitPerimeter=0;entryX=0.5;entryY=0;entryDx=0;entryDy=0;entryPerimeter=0;endArrow=none;endFill=0;" parent="1" source="oA7SMQpWHTpef_Fw7DRh-28" target="oA7SMQpWHTpef_Fw7DRh-34" edge="1">
          <mxGeometry relative="1" as="geometry" />
        </mxCell>
        <mxCell id="oA7SMQpWHTpef_Fw7DRh-79" style="edgeStyle=orthogonalEdgeStyle;shape=connector;rounded=0;orthogonalLoop=1;jettySize=auto;html=1;exitX=0.5;exitY=1;exitDx=0;exitDy=0;exitPerimeter=0;entryX=1;entryY=0.7;entryDx=0;entryDy=0;entryPerimeter=0;labelBackgroundColor=default;strokeColor=default;fontFamily=Helvetica;fontSize=11;fontColor=default;endArrow=none;endFill=0;" parent="1" source="oA7SMQpWHTpef_Fw7DRh-28" target="oA7SMQpWHTpef_Fw7DRh-22" edge="1">
          <mxGeometry relative="1" as="geometry" />
        </mxCell>
        <mxCell id="oA7SMQpWHTpef_Fw7DRh-28" value="Flow Meter" style="verticalLabelPosition=middle;aspect=fixed;html=1;verticalAlign=middle;fillColor=strokeColor;align=left;outlineConnect=0;shape=mxgraph.fluid_power.x11910;points=[[0.5,0,0],[0.5,1,0]];rotation=90;labelPosition=right;horizontal=0;" parent="1" vertex="1">
          <mxGeometry x="-327" y="201.41999999999996" width="37.34" height="75.04" as="geometry" />
        </mxCell>
        <mxCell id="oA7SMQpWHTpef_Fw7DRh-31" value="" style="shape=mxgraph.pid.feeders.spray_nozzle;html=1;pointerEvents=1;align=center;verticalLabelPosition=bottom;verticalAlign=top;dashed=0;rotation=-180;" parent="1" vertex="1">
          <mxGeometry x="-140" y="199.41999999999996" width="27" height="13.5" as="geometry" />
        </mxCell>
        <mxCell id="oA7SMQpWHTpef_Fw7DRh-32" value="" style="shape=mxgraph.pid.feeders.spray_nozzle;html=1;pointerEvents=1;align=center;verticalLabelPosition=bottom;verticalAlign=top;dashed=0;rotation=-180;" parent="1" vertex="1">
          <mxGeometry x="-110" y="199.41999999999996" width="27" height="13.5" as="geometry" />
        </mxCell>
        <mxCell id="oA7SMQpWHTpef_Fw7DRh-34" value="" style="shape=mxgraph.pid.feeders.spray_nozzle;html=1;pointerEvents=1;align=center;verticalLabelPosition=bottom;verticalAlign=top;dashed=0;rotation=-180;" parent="1" vertex="1">
          <mxGeometry x="-80" y="199.41999999999996" width="27" height="13.5" as="geometry" />
        </mxCell>
        <mxCell id="oA7SMQpWHTpef_Fw7DRh-41" style="edgeStyle=orthogonalEdgeStyle;rounded=0;orthogonalLoop=1;jettySize=auto;html=1;exitX=0.5;exitY=1;exitDx=0;exitDy=0;exitPerimeter=0;entryX=0;entryY=0.7;entryDx=0;entryDy=0;entryPerimeter=0;endArrow=none;endFill=0;" parent="1" source="oA7SMQpWHTpef_Fw7DRh-40" target="oA7SMQpWHTpef_Fw7DRh-22" edge="1">
          <mxGeometry relative="1" as="geometry">
            <mxPoint x="-407.9200000000001" y="239.01999999999998" as="targetPoint" />
            <Array as="points">
              <mxPoint x="-469" y="239" />
              <mxPoint x="-402" y="239" />
            </Array>
          </mxGeometry>
        </mxCell>
        <mxCell id="oA7SMQpWHTpef_Fw7DRh-43" style="edgeStyle=orthogonalEdgeStyle;rounded=0;orthogonalLoop=1;jettySize=auto;html=1;exitX=0.5;exitY=1;exitDx=0;exitDy=0;exitPerimeter=0;entryX=-0.001;entryY=0.709;entryDx=0;entryDy=0;entryPerimeter=0;endArrow=none;endFill=0;" parent="1" source="oA7SMQpWHTpef_Fw7DRh-40" target="oA7SMQpWHTpef_Fw7DRh-42" edge="1">
          <mxGeometry relative="1" as="geometry">
            <Array as="points">
              <mxPoint x="-468" y="239" />
              <mxPoint x="-427" y="239" />
              <mxPoint x="-427" y="319" />
            </Array>
          </mxGeometry>
        </mxCell>
        <mxCell id="oA7SMQpWHTpef_Fw7DRh-44" style="edgeStyle=orthogonalEdgeStyle;rounded=0;orthogonalLoop=1;jettySize=auto;html=1;exitX=0.5;exitY=1;exitDx=0;exitDy=0;exitPerimeter=0;entryX=-0.001;entryY=0.709;entryDx=0;entryDy=0;entryPerimeter=0;endArrow=none;endFill=0;" parent="1" source="oA7SMQpWHTpef_Fw7DRh-40" target="oA7SMQpWHTpef_Fw7DRh-3" edge="1">
          <mxGeometry relative="1" as="geometry">
            <Array as="points">
              <mxPoint x="-468" y="239.41999999999996" />
              <mxPoint x="-485" y="239.41999999999996" />
            </Array>
          </mxGeometry>
        </mxCell>
        <mxCell id="oA7SMQpWHTpef_Fw7DRh-40" value="" style="verticalLabelPosition=bottom;aspect=fixed;html=1;verticalAlign=top;fillColor=strokeColor;align=center;outlineConnect=0;shape=mxgraph.fluid_power.x12320;points=[[0.5,1,0]]" parent="1" vertex="1">
          <mxGeometry x="-487" y="114" width="37.06" height="92.92" as="geometry" />
        </mxCell>
        <mxCell id="oA7SMQpWHTpef_Fw7DRh-42" value="" style="verticalLabelPosition=bottom;align=center;html=1;verticalAlign=top;pointerEvents=1;dashed=0;shape=mxgraph.pid2valves.valve;valveType=gate;actuator=solenoid;rotation=90;" parent="1" vertex="1">
          <mxGeometry x="-439" y="313.99999999999994" width="40" height="40" as="geometry" />
        </mxCell>
        <mxCell id="oA7SMQpWHTpef_Fw7DRh-63" style="edgeStyle=orthogonalEdgeStyle;rounded=0;orthogonalLoop=1;jettySize=auto;html=1;entryX=0.5;entryY=1;entryDx=0;entryDy=0;entryPerimeter=0;endArrow=none;endFill=0;" parent="1" source="oA7SMQpWHTpef_Fw7DRh-52" target="oA7SMQpWHTpef_Fw7DRh-10" edge="1">
          <mxGeometry relative="1" as="geometry" />
        </mxCell>
        <mxCell id="oA7SMQpWHTpef_Fw7DRh-52" value="Runoff Recycling Tank" style="shape=mxgraph.pid.vessels.tank_(covered);html=1;pointerEvents=1;align=center;verticalLabelPosition=bottom;verticalAlign=top;dashed=0;" parent="1" vertex="1">
          <mxGeometry x="-163.25" y="350.37" width="100" height="75" as="geometry" />
        </mxCell>
        <mxCell id="oA7SMQpWHTpef_Fw7DRh-61" value="" style="edgeStyle=orthogonalEdgeStyle;rounded=0;orthogonalLoop=1;jettySize=auto;html=1;endArrow=none;endFill=0;" parent="1" source="oA7SMQpWHTpef_Fw7DRh-1" target="oA7SMQpWHTpef_Fw7DRh-60" edge="1">
          <mxGeometry relative="1" as="geometry">
            <mxPoint x="-717" y="320" as="sourcePoint" />
            <mxPoint x="-717" y="450" as="targetPoint" />
          </mxGeometry>
        </mxCell>
        <mxCell id="oA7SMQpWHTpef_Fw7DRh-60" value="" style="verticalLabelPosition=bottom;aspect=fixed;html=1;verticalAlign=top;fillColor=strokeColor;align=center;outlineConnect=0;shape=mxgraph.fluid_power.x11980;points=[[0.5,0,0],[0.5,1,0]];rotation=0;" parent="1" vertex="1">
          <mxGeometry x="-733.22" y="354" width="32.44" height="55.75" as="geometry" />
        </mxCell>
        <mxCell id="oA7SMQpWHTpef_Fw7DRh-69" style="edgeStyle=orthogonalEdgeStyle;shape=connector;rounded=0;orthogonalLoop=1;jettySize=auto;html=1;exitX=0.5;exitY=1;exitDx=0;exitDy=0;exitPerimeter=0;labelBackgroundColor=default;strokeColor=default;fontFamily=Helvetica;fontSize=11;fontColor=default;endArrow=none;endFill=0;" parent="1" source="oA7SMQpWHTpef_Fw7DRh-66" target="oA7SMQpWHTpef_Fw7DRh-11" edge="1">
          <mxGeometry relative="1" as="geometry">
            <mxPoint x="-400" y="602" as="targetPoint" />
            <Array as="points">
              <mxPoint x="-400" y="527" />
            </Array>
          </mxGeometry>
        </mxCell>
        <mxCell id="oA7SMQpWHTpef_Fw7DRh-71" style="edgeStyle=orthogonalEdgeStyle;shape=connector;rounded=0;orthogonalLoop=1;jettySize=auto;html=1;entryX=0.702;entryY=-0.013;entryDx=0;entryDy=0;entryPerimeter=0;labelBackgroundColor=default;strokeColor=default;fontFamily=Helvetica;fontSize=11;fontColor=default;endArrow=none;endFill=0;exitX=0.5;exitY=0;exitDx=0;exitDy=0;exitPerimeter=0;" parent="1" source="oA7SMQpWHTpef_Fw7DRh-70" target="oA7SMQpWHTpef_Fw7DRh-16" edge="1">
          <mxGeometry relative="1" as="geometry">
            <Array as="points">
              <mxPoint x="-560" y="440" />
              <mxPoint x="-627" y="440" />
            </Array>
          </mxGeometry>
        </mxCell>
        <mxCell id="oA7SMQpWHTpef_Fw7DRh-72" style="edgeStyle=orthogonalEdgeStyle;shape=connector;rounded=0;orthogonalLoop=1;jettySize=auto;html=1;exitX=0.5;exitY=1;exitDx=0;exitDy=0;exitPerimeter=0;entryX=0.048;entryY=0.839;entryDx=0;entryDy=0;entryPerimeter=0;labelBackgroundColor=default;strokeColor=default;fontFamily=Helvetica;fontSize=11;fontColor=default;endArrow=none;endFill=0;" parent="1" source="oA7SMQpWHTpef_Fw7DRh-70" target="oA7SMQpWHTpef_Fw7DRh-11" edge="1">
          <mxGeometry relative="1" as="geometry">
            <Array as="points">
              <mxPoint x="-560" y="723" />
            </Array>
          </mxGeometry>
        </mxCell>
        <mxCell id="oA7SMQpWHTpef_Fw7DRh-70" value="Supply Pump" style="shape=mxgraph.pid.pumps_-_din.centrifugal;html=1;pointerEvents=1;align=left;verticalLabelPosition=middle;verticalAlign=middle;dashed=0;rotation=0;labelPosition=right;" parent="1" vertex="1">
          <mxGeometry x="-580" y="488.75" width="40" height="40" as="geometry" />
        </mxCell>
        <mxCell id="oA7SMQpWHTpef_Fw7DRh-77" style="edgeStyle=orthogonalEdgeStyle;shape=connector;rounded=0;orthogonalLoop=1;jettySize=auto;html=1;exitX=0;exitY=0.7;exitDx=0;exitDy=0;exitPerimeter=0;labelBackgroundColor=default;strokeColor=default;fontFamily=Helvetica;fontSize=11;fontColor=default;endArrow=none;endFill=0;entryX=0.501;entryY=0.004;entryDx=0;entryDy=0;entryPerimeter=0;" parent="1" source="oA7SMQpWHTpef_Fw7DRh-74" target="oA7SMQpWHTpef_Fw7DRh-11" edge="1">
          <mxGeometry relative="1" as="geometry">
            <mxPoint x="-371" y="660" as="targetPoint" />
            <Array as="points">
              <mxPoint x="-371" y="583" />
            </Array>
          </mxGeometry>
        </mxCell>
        <mxCell id="oA7SMQpWHTpef_Fw7DRh-74" value="" style="verticalLabelPosition=bottom;align=center;html=1;verticalAlign=top;pointerEvents=1;dashed=0;shape=mxgraph.pid2valves.valve;valveType=gate;actuator=solenoid;rotation=0;points=[[0,0.7,0,0,0],[1,0.7,0,0,0]];" parent="1" vertex="1">
          <mxGeometry x="-290" y="554.46" width="40" height="40" as="geometry" />
        </mxCell>
        <mxCell id="oA7SMQpWHTpef_Fw7DRh-76" style="edgeStyle=orthogonalEdgeStyle;shape=connector;rounded=0;orthogonalLoop=1;jettySize=auto;html=1;exitX=0.5;exitY=1;exitDx=0;exitDy=0;exitPerimeter=0;entryX=1;entryY=0.7;entryDx=0;entryDy=0;entryPerimeter=0;labelBackgroundColor=default;strokeColor=default;fontFamily=Helvetica;fontSize=11;fontColor=default;endArrow=none;endFill=0;" parent="1" source="oA7SMQpWHTpef_Fw7DRh-75" target="oA7SMQpWHTpef_Fw7DRh-74" edge="1">
          <mxGeometry relative="1" as="geometry" />
        </mxCell>
        <mxCell id="oA7SMQpWHTpef_Fw7DRh-75" value="Carbon" style="verticalLabelPosition=middle;aspect=fixed;html=1;verticalAlign=middle;fillColor=strokeColor;align=center;outlineConnect=0;shape=mxgraph.fluid_power.x11980;points=[[0.5,0,0],[0.5,1,0]];rotation=90;labelPosition=right;horizontal=0;" parent="1" vertex="1">
          <mxGeometry x="-209.47" y="554.46" width="32.44" height="55.75" as="geometry" />
        </mxCell>
        <mxCell id="Cc5eUVK9kJNkrveM7U8v-6" style="edgeStyle=orthogonalEdgeStyle;rounded=0;orthogonalLoop=1;jettySize=auto;html=1;exitX=0.5;exitY=1;exitDx=0;exitDy=0;exitPerimeter=0;entryX=0.056;entryY=0.558;entryDx=0;entryDy=0;entryPerimeter=0;endArrow=none;endFill=0;" parent="1" source="Cc5eUVK9kJNkrveM7U8v-1" target="oA7SMQpWHTpef_Fw7DRh-11" edge="1">
          <mxGeometry relative="1" as="geometry">
            <Array as="points">
              <mxPoint x="-441" y="702" />
              <mxPoint x="-416" y="702" />
            </Array>
          </mxGeometry>
        </mxCell>
        <mxCell id="Cc5eUVK9kJNkrveM7U8v-7" style="edgeStyle=orthogonalEdgeStyle;shape=connector;rounded=0;orthogonalLoop=1;jettySize=auto;html=1;exitX=0.5;exitY=0;exitDx=0;exitDy=0;exitPerimeter=0;labelBackgroundColor=default;strokeColor=default;fontFamily=Helvetica;fontSize=11;fontColor=default;endArrow=none;endFill=0;entryX=0;entryY=0.5;entryDx=0;entryDy=0;entryPerimeter=0;" parent="1" source="Cc5eUVK9kJNkrveM7U8v-1" target="Cc5eUVK9kJNkrveM7U8v-10" edge="1">
          <mxGeometry relative="1" as="geometry">
            <mxPoint x="-441.3349999999998" y="576.665" as="targetPoint" />
          </mxGeometry>
        </mxCell>
        <mxCell id="Cc5eUVK9kJNkrveM7U8v-1" value="Mixing Pump" style="shape=mxgraph.pid.pumps_-_din.centrifugal;html=1;pointerEvents=1;align=right;verticalLabelPosition=middle;verticalAlign=middle;dashed=0;rotation=0;labelPosition=left;" parent="1" vertex="1">
          <mxGeometry x="-461.47" y="602.34" width="40" height="40" as="geometry" />
        </mxCell>
        <mxCell id="Cc5eUVK9kJNkrveM7U8v-3" value="" style="edgeStyle=orthogonalEdgeStyle;shape=connector;rounded=0;orthogonalLoop=1;jettySize=auto;html=1;exitX=0.5;exitY=1;exitDx=0;exitDy=0;exitPerimeter=0;labelBackgroundColor=default;strokeColor=default;fontFamily=Helvetica;fontSize=11;fontColor=default;endArrow=none;endFill=0;entryX=0.004;entryY=0.481;entryDx=0;entryDy=0;entryPerimeter=0;" parent="1" source="oA7SMQpWHTpef_Fw7DRh-13" target="Cc5eUVK9kJNkrveM7U8v-2" edge="1">
          <mxGeometry relative="1" as="geometry">
            <mxPoint x="-248" y="501" as="sourcePoint" />
            <mxPoint x="-260" y="501" as="targetPoint" />
          </mxGeometry>
        </mxCell>
        <mxCell id="Cc5eUVK9kJNkrveM7U8v-2" value="" style="verticalLabelPosition=bottom;align=center;html=1;verticalAlign=top;pointerEvents=1;dashed=0;shape=mxgraph.pid2valves.valve;valveType=check;rotation=-180;" parent="1" vertex="1">
          <mxGeometry x="-286.66" y="517.0999999999999" width="33.33" height="20" as="geometry" />
        </mxCell>
        <mxCell id="Cc5eUVK9kJNkrveM7U8v-11" style="edgeStyle=orthogonalEdgeStyle;shape=connector;rounded=0;orthogonalLoop=1;jettySize=auto;html=1;entryX=0.5;entryY=0;entryDx=0;entryDy=0;entryPerimeter=0;labelBackgroundColor=default;strokeColor=default;fontFamily=Helvetica;fontSize=11;fontColor=default;endArrow=none;endFill=0;startArrow=none;exitX=0.5;exitY=0;exitDx=0;exitDy=0;exitPerimeter=0;" parent="1" source="nhlMVhX39VTh7t-UhzKr-5" target="oA7SMQpWHTpef_Fw7DRh-66" edge="1">
          <mxGeometry relative="1" as="geometry">
            <mxPoint x="-310" y="450" as="sourcePoint" />
          </mxGeometry>
        </mxCell>
        <mxCell id="Cc5eUVK9kJNkrveM7U8v-10" value="" style="verticalLabelPosition=bottom;align=center;html=1;verticalAlign=top;pointerEvents=1;dashed=0;shape=mxgraph.pid2valves.valve;valveType=check;fontFamily=Helvetica;fontSize=11;fontColor=default;points=[[0,0.5,0,0,0],[1,0.5,0,0,0]];rotation=-90;" parent="1" vertex="1">
          <mxGeometry x="-458.14" y="545" width="33.33" height="20" as="geometry" />
        </mxCell>
        <mxCell id="Cc5eUVK9kJNkrveM7U8v-16" style="edgeStyle=orthogonalEdgeStyle;shape=connector;rounded=0;orthogonalLoop=1;jettySize=auto;html=1;exitX=0;exitY=0.75;exitDx=0;exitDy=0;entryX=0.5;entryY=1;entryDx=0;entryDy=0;entryPerimeter=0;labelBackgroundColor=default;strokeColor=default;fontFamily=Helvetica;fontSize=11;fontColor=default;endArrow=none;endFill=0;" parent="1" source="Cc5eUVK9kJNkrveM7U8v-42" target="oA7SMQpWHTpef_Fw7DRh-9" edge="1">
          <mxGeometry relative="1" as="geometry">
            <mxPoint x="-21.654999999999745" y="582.335" as="sourcePoint" />
            <Array as="points">
              <mxPoint x="-61" y="583" />
            </Array>
          </mxGeometry>
        </mxCell>
        <mxCell id="IOF8uTJPf_rr452XmYYG-11" style="edgeStyle=orthogonalEdgeStyle;rounded=0;orthogonalLoop=1;jettySize=auto;html=1;exitX=0.33;exitY=0;exitDx=0;exitDy=0;exitPerimeter=0;entryX=0.8;entryY=0;entryDx=0;entryDy=0;entryPerimeter=0;endArrow=none;endFill=0;" edge="1" parent="1" source="nhlMVhX39VTh7t-UhzKr-1" target="oA7SMQpWHTpef_Fw7DRh-11">
          <mxGeometry relative="1" as="geometry" />
        </mxCell>
        <mxCell id="nhlMVhX39VTh7t-UhzKr-1" value="" style="shape=mxgraph.pid.pumps.peristaltic;html=1;pointerEvents=1;align=center;verticalLabelPosition=bottom;verticalAlign=top;dashed=0;points=[[0.33,0,0,0,0],[0.5,1,0,0,0],[0.67,0,0,0,0]];" parent="1" vertex="1">
          <mxGeometry x="-160" y="760" width="40" height="46" as="geometry" />
        </mxCell>
        <mxCell id="IOF8uTJPf_rr452XmYYG-12" style="edgeStyle=orthogonalEdgeStyle;rounded=0;orthogonalLoop=1;jettySize=auto;html=1;exitX=0.33;exitY=0;exitDx=0;exitDy=0;exitPerimeter=0;entryX=0.8;entryY=0;entryDx=0;entryDy=0;entryPerimeter=0;endArrow=none;endFill=0;" edge="1" parent="1" source="nhlMVhX39VTh7t-UhzKr-2" target="oA7SMQpWHTpef_Fw7DRh-11">
          <mxGeometry relative="1" as="geometry" />
        </mxCell>
        <mxCell id="nhlMVhX39VTh7t-UhzKr-2" value="" style="shape=mxgraph.pid.pumps.peristaltic;html=1;pointerEvents=1;align=center;verticalLabelPosition=bottom;verticalAlign=top;dashed=0;points=[[0.33,0,0,0,0],[0.5,1,0,0,0],[0.67,0,0,0,0]];" parent="1" vertex="1">
          <mxGeometry x="-110" y="760" width="40" height="46" as="geometry" />
        </mxCell>
        <mxCell id="IOF8uTJPf_rr452XmYYG-9" style="edgeStyle=orthogonalEdgeStyle;rounded=0;orthogonalLoop=1;jettySize=auto;html=1;exitX=0.33;exitY=0;exitDx=0;exitDy=0;exitPerimeter=0;entryX=0.8;entryY=0;entryDx=0;entryDy=0;entryPerimeter=0;endArrow=none;endFill=0;" edge="1" parent="1" source="nhlMVhX39VTh7t-UhzKr-3" target="oA7SMQpWHTpef_Fw7DRh-11">
          <mxGeometry relative="1" as="geometry" />
        </mxCell>
        <mxCell id="IOF8uTJPf_rr452XmYYG-33" style="edgeStyle=orthogonalEdgeStyle;rounded=0;orthogonalLoop=1;jettySize=auto;html=1;exitX=0.67;exitY=0;exitDx=0;exitDy=0;exitPerimeter=0;entryX=0.05;entryY=0.75;entryDx=0;entryDy=0;entryPerimeter=0;endArrow=none;endFill=0;" edge="1" parent="1" source="nhlMVhX39VTh7t-UhzKr-3" target="IOF8uTJPf_rr452XmYYG-34">
          <mxGeometry relative="1" as="geometry">
            <mxPoint x="-220" y="1000" as="targetPoint" />
            <Array as="points">
              <mxPoint x="-233" y="740" />
              <mxPoint x="-215" y="740" />
              <mxPoint x="-215" y="1001" />
            </Array>
          </mxGeometry>
        </mxCell>
        <mxCell id="nhlMVhX39VTh7t-UhzKr-3" value="" style="shape=mxgraph.pid.pumps.peristaltic;html=1;pointerEvents=1;align=center;verticalLabelPosition=bottom;verticalAlign=top;dashed=0;points=[[0.33,0,0,0,0],[0.5,1,0,0,0],[0.67,0,0,0,0]];" parent="1" vertex="1">
          <mxGeometry x="-260.33000000000004" y="760" width="40" height="46" as="geometry" />
        </mxCell>
        <mxCell id="IOF8uTJPf_rr452XmYYG-8" style="edgeStyle=orthogonalEdgeStyle;rounded=0;orthogonalLoop=1;jettySize=auto;html=1;exitX=0.33;exitY=0;exitDx=0;exitDy=0;exitPerimeter=0;entryX=0.8;entryY=0;entryDx=0;entryDy=0;entryPerimeter=0;endArrow=none;endFill=0;" edge="1" parent="1" source="nhlMVhX39VTh7t-UhzKr-4" target="oA7SMQpWHTpef_Fw7DRh-11">
          <mxGeometry relative="1" as="geometry" />
        </mxCell>
        <mxCell id="IOF8uTJPf_rr452XmYYG-28" style="edgeStyle=orthogonalEdgeStyle;rounded=0;orthogonalLoop=1;jettySize=auto;html=1;exitX=0.67;exitY=0;exitDx=0;exitDy=0;exitPerimeter=0;entryX=0.05;entryY=0.75;entryDx=0;entryDy=0;entryPerimeter=0;endArrow=none;endFill=0;" edge="1" parent="1" source="nhlMVhX39VTh7t-UhzKr-4" target="IOF8uTJPf_rr452XmYYG-1">
          <mxGeometry relative="1" as="geometry">
            <Array as="points">
              <mxPoint x="-283" y="740" />
              <mxPoint x="-265" y="740" />
              <mxPoint x="-265" y="911" />
            </Array>
          </mxGeometry>
        </mxCell>
        <mxCell id="nhlMVhX39VTh7t-UhzKr-4" value="" style="shape=mxgraph.pid.pumps.peristaltic;html=1;pointerEvents=1;align=center;verticalLabelPosition=bottom;verticalAlign=top;dashed=0;points=[[0.33,0,0,0,0],[0.5,1,0,0,0],[0.67,0,0,0,0]];" parent="1" vertex="1">
          <mxGeometry x="-310" y="760" width="40" height="46" as="geometry" />
        </mxCell>
        <mxCell id="nhlMVhX39VTh7t-UhzKr-6" value="" style="edgeStyle=orthogonalEdgeStyle;shape=connector;rounded=0;orthogonalLoop=1;jettySize=auto;html=1;exitX=1;exitY=0.5;exitDx=0;exitDy=0;exitPerimeter=0;labelBackgroundColor=default;strokeColor=default;fontFamily=Helvetica;fontSize=11;fontColor=default;endArrow=none;endFill=0;entryX=0.5;entryY=1;entryDx=0;entryDy=0;entryPerimeter=0;" parent="1" source="Cc5eUVK9kJNkrveM7U8v-10" target="nhlMVhX39VTh7t-UhzKr-5" edge="1">
          <mxGeometry relative="1" as="geometry">
            <mxPoint x="-441.4749999999999" y="538.335" as="sourcePoint" />
            <mxPoint x="-430" y="450" as="targetPoint" />
          </mxGeometry>
        </mxCell>
        <mxCell id="nhlMVhX39VTh7t-UhzKr-5" value="Heater" style="verticalLabelPosition=middle;aspect=fixed;html=1;verticalAlign=middle;fillColor=strokeColor;align=right;outlineConnect=0;shape=mxgraph.fluid_power.x12290;points=[[0.5,0,0],[0.5,1,0]];rotation=90;horizontal=0;labelPosition=left;" parent="1" vertex="1">
          <mxGeometry x="-400.72999999999996" y="452.08" width="26.1" height="49.57" as="geometry" />
        </mxCell>
        <mxCell id="nhlMVhX39VTh7t-UhzKr-7" value="" style="group" parent="1" vertex="1" connectable="0">
          <mxGeometry x="-382.755" y="510.875" width="55.75" height="50.46500000000003" as="geometry" />
        </mxCell>
        <mxCell id="oA7SMQpWHTpef_Fw7DRh-66" value="Steriliser" style="verticalLabelPosition=middle;aspect=fixed;html=1;verticalAlign=middle;fillColor=strokeColor;align=right;outlineConnect=0;shape=mxgraph.fluid_power.x11980;points=[[0.5,0,0],[0.5,1,0]];rotation=90;labelPosition=left;horizontal=0;" parent="nhlMVhX39VTh7t-UhzKr-7" vertex="1">
          <mxGeometry x="11.654999999999973" y="-11.654999999999973" width="32.44" height="55.75" as="geometry" />
        </mxCell>
        <mxCell id="oA7SMQpWHTpef_Fw7DRh-68" value="UV" style="pointerEvents=1;verticalLabelPosition=bottom;shadow=0;dashed=0;align=center;html=1;verticalAlign=top;shape=mxgraph.electrical.miscellaneous.flourescent_lamp;fontFamily=Helvetica;fontSize=11;fontColor=default;" parent="nhlMVhX39VTh7t-UhzKr-7" vertex="1">
          <mxGeometry x="8.875" y="36.21500000000003" width="38" height="14.25" as="geometry" />
        </mxCell>
        <mxCell id="IOF8uTJPf_rr452XmYYG-1" value="Ammonium&lt;br&gt;Sulphate&lt;br&gt;Tank" style="shape=mxgraph.pid.vessels.tank_(covered);html=1;pointerEvents=1;align=center;verticalLabelPosition=bottom;verticalAlign=top;dashed=0;points=[[0.05,0.75,0,0,0],[0.5,0,0,0,0]];" vertex="1" parent="1">
          <mxGeometry x="-260.01" y="870" width="40" height="55" as="geometry" />
        </mxCell>
        <mxCell id="IOF8uTJPf_rr452XmYYG-13" style="edgeStyle=orthogonalEdgeStyle;rounded=0;orthogonalLoop=1;jettySize=auto;html=1;exitX=0.33;exitY=0;exitDx=0;exitDy=0;exitPerimeter=0;entryX=0.8;entryY=0;entryDx=0;entryDy=0;entryPerimeter=0;endArrow=none;endFill=0;" edge="1" parent="1" source="IOF8uTJPf_rr452XmYYG-7" target="oA7SMQpWHTpef_Fw7DRh-11">
          <mxGeometry relative="1" as="geometry" />
        </mxCell>
        <mxCell id="IOF8uTJPf_rr452XmYYG-7" value="" style="shape=mxgraph.pid.pumps.peristaltic;html=1;pointerEvents=1;align=center;verticalLabelPosition=bottom;verticalAlign=top;dashed=0;points=[[0.33,0,0,0,0],[0.5,1,0,0,0],[0.67,0,0,0,0]];" vertex="1" parent="1">
          <mxGeometry x="-60.25" y="760" width="40" height="46" as="geometry" />
        </mxCell>
        <mxCell id="IOF8uTJPf_rr452XmYYG-17" style="edgeStyle=orthogonalEdgeStyle;rounded=0;orthogonalLoop=1;jettySize=auto;html=1;exitX=1;exitY=0.5;exitDx=0;exitDy=0;exitPerimeter=0;endArrow=none;endFill=0;entryX=0.5;entryY=0;entryDx=0;entryDy=0;entryPerimeter=0;" edge="1" parent="1" source="IOF8uTJPf_rr452XmYYG-16" target="IOF8uTJPf_rr452XmYYG-1">
          <mxGeometry relative="1" as="geometry">
            <mxPoint x="-230" y="860" as="targetPoint" />
          </mxGeometry>
        </mxCell>
        <mxCell id="IOF8uTJPf_rr452XmYYG-16" value="" style="verticalLabelPosition=bottom;align=center;html=1;verticalAlign=top;pointerEvents=1;dashed=0;shape=mxgraph.pid2valves.valve;valveType=check;fontFamily=Helvetica;fontSize=11;fontColor=default;points=[[0,0.5,0,0,0],[1,0.5,0,0,0]];rotation=90;" vertex="1" parent="1">
          <mxGeometry x="-250" y="850" width="19.99" height="10" as="geometry" />
        </mxCell>
        <mxCell id="IOF8uTJPf_rr452XmYYG-18" style="edgeStyle=orthogonalEdgeStyle;rounded=0;orthogonalLoop=1;jettySize=auto;html=1;exitX=1;exitY=0.5;exitDx=0;exitDy=0;exitPerimeter=0;endArrow=none;endFill=0;entryX=0.5;entryY=0;entryDx=0;entryDy=0;entryPerimeter=0;" edge="1" source="IOF8uTJPf_rr452XmYYG-19" parent="1" target="IOF8uTJPf_rr452XmYYG-29">
          <mxGeometry relative="1" as="geometry">
            <mxPoint x="-139.99" y="870" as="targetPoint" />
          </mxGeometry>
        </mxCell>
        <mxCell id="IOF8uTJPf_rr452XmYYG-19" value="" style="verticalLabelPosition=bottom;align=center;html=1;verticalAlign=top;pointerEvents=1;dashed=0;shape=mxgraph.pid2valves.valve;valveType=check;fontFamily=Helvetica;fontSize=11;fontColor=default;points=[[0,0.5,0,0,0],[1,0.5,0,0,0]];rotation=90;" vertex="1" parent="1">
          <mxGeometry x="-149.99" y="850" width="19.99" height="10" as="geometry" />
        </mxCell>
        <mxCell id="IOF8uTJPf_rr452XmYYG-20" style="edgeStyle=orthogonalEdgeStyle;rounded=0;orthogonalLoop=1;jettySize=auto;html=1;exitX=1;exitY=0.5;exitDx=0;exitDy=0;exitPerimeter=0;endArrow=none;endFill=0;entryX=0.5;entryY=0;entryDx=0;entryDy=0;entryPerimeter=0;" edge="1" source="IOF8uTJPf_rr452XmYYG-21" parent="1" target="IOF8uTJPf_rr452XmYYG-31">
          <mxGeometry relative="1" as="geometry">
            <mxPoint x="-40.000000000000014" y="870" as="targetPoint" />
          </mxGeometry>
        </mxCell>
        <mxCell id="IOF8uTJPf_rr452XmYYG-21" value="" style="verticalLabelPosition=bottom;align=center;html=1;verticalAlign=top;pointerEvents=1;dashed=0;shape=mxgraph.pid2valves.valve;valveType=check;fontFamily=Helvetica;fontSize=11;fontColor=default;points=[[0,0.5,0,0,0],[1,0.5,0,0,0]];rotation=90;" vertex="1" parent="1">
          <mxGeometry x="-50.000000000000014" y="850" width="19.99" height="10" as="geometry" />
        </mxCell>
        <mxCell id="IOF8uTJPf_rr452XmYYG-22" style="edgeStyle=orthogonalEdgeStyle;rounded=0;orthogonalLoop=1;jettySize=auto;html=1;exitX=1;exitY=0.5;exitDx=0;exitDy=0;exitPerimeter=0;endArrow=none;endFill=0;entryX=0.5;entryY=0;entryDx=0;entryDy=0;entryPerimeter=0;" edge="1" source="IOF8uTJPf_rr452XmYYG-23" parent="1" target="IOF8uTJPf_rr452XmYYG-34">
          <mxGeometry relative="1" as="geometry">
            <mxPoint x="-189.99" y="960" as="targetPoint" />
          </mxGeometry>
        </mxCell>
        <mxCell id="IOF8uTJPf_rr452XmYYG-23" value="" style="verticalLabelPosition=bottom;align=center;html=1;verticalAlign=top;pointerEvents=1;dashed=0;shape=mxgraph.pid2valves.valve;valveType=check;fontFamily=Helvetica;fontSize=11;fontColor=default;points=[[0,0.5,0,0,0],[1,0.5,0,0,0]];rotation=90;" vertex="1" parent="1">
          <mxGeometry x="-199.99" y="940" width="19.99" height="10" as="geometry" />
        </mxCell>
        <mxCell id="IOF8uTJPf_rr452XmYYG-24" style="edgeStyle=orthogonalEdgeStyle;rounded=0;orthogonalLoop=1;jettySize=auto;html=1;exitX=1;exitY=0.5;exitDx=0;exitDy=0;exitPerimeter=0;endArrow=none;endFill=0;entryX=0.5;entryY=0;entryDx=0;entryDy=0;entryPerimeter=0;" edge="1" source="IOF8uTJPf_rr452XmYYG-25" parent="1" target="IOF8uTJPf_rr452XmYYG-36">
          <mxGeometry relative="1" as="geometry">
            <mxPoint x="-90.32000000000001" y="960" as="targetPoint" />
          </mxGeometry>
        </mxCell>
        <mxCell id="IOF8uTJPf_rr452XmYYG-25" value="" style="verticalLabelPosition=bottom;align=center;html=1;verticalAlign=top;pointerEvents=1;dashed=0;shape=mxgraph.pid2valves.valve;valveType=check;fontFamily=Helvetica;fontSize=11;fontColor=default;points=[[0,0.5,0,0,0],[1,0.5,0,0,0]];rotation=90;" vertex="1" parent="1">
          <mxGeometry x="-100.32000000000001" y="940" width="19.99" height="10" as="geometry" />
        </mxCell>
        <mxCell id="IOF8uTJPf_rr452XmYYG-26" style="edgeStyle=orthogonalEdgeStyle;rounded=0;orthogonalLoop=1;jettySize=auto;html=1;exitX=1;exitY=0.5;exitDx=0;exitDy=0;exitPerimeter=0;endArrow=none;endFill=0;entryX=0.5;entryY=0;entryDx=0;entryDy=0;entryPerimeter=0;" edge="1" source="IOF8uTJPf_rr452XmYYG-27" parent="1" target="IOF8uTJPf_rr452XmYYG-38">
          <mxGeometry relative="1" as="geometry">
            <mxPoint x="6.179999999999993" y="960" as="targetPoint" />
          </mxGeometry>
        </mxCell>
        <mxCell id="IOF8uTJPf_rr452XmYYG-27" value="" style="verticalLabelPosition=bottom;align=center;html=1;verticalAlign=top;pointerEvents=1;dashed=0;shape=mxgraph.pid2valves.valve;valveType=check;fontFamily=Helvetica;fontSize=11;fontColor=default;points=[[0,0.5,0,0,0],[1,0.5,0,0,0]];rotation=90;" vertex="1" parent="1">
          <mxGeometry x="-7.549516567451064e-15" y="940" width="19.99" height="10" as="geometry" />
        </mxCell>
        <mxCell id="IOF8uTJPf_rr452XmYYG-29" value="Calcium&lt;br&gt;Sulphate&lt;br&gt;Tank" style="shape=mxgraph.pid.vessels.tank_(covered);html=1;pointerEvents=1;align=center;verticalLabelPosition=bottom;verticalAlign=top;dashed=0;points=[[0.05,0.75,0,0,0],[0.5,0,0,0,0]];" vertex="1" parent="1">
          <mxGeometry x="-160" y="870" width="40" height="55" as="geometry" />
        </mxCell>
        <mxCell id="IOF8uTJPf_rr452XmYYG-30" style="edgeStyle=orthogonalEdgeStyle;rounded=0;orthogonalLoop=1;jettySize=auto;html=1;exitX=0.67;exitY=0;exitDx=0;exitDy=0;exitPerimeter=0;entryX=0.05;entryY=0.75;entryDx=0;entryDy=0;entryPerimeter=0;endArrow=none;endFill=0;" edge="1" parent="1" source="oA7SMQpWHTpef_Fw7DRh-2" target="IOF8uTJPf_rr452XmYYG-29">
          <mxGeometry relative="1" as="geometry">
            <mxPoint x="-184" y="759.98" as="sourcePoint" />
            <mxPoint x="-159" y="910.98" as="targetPoint" />
            <Array as="points">
              <mxPoint x="-184" y="740" />
              <mxPoint x="-165" y="740" />
              <mxPoint x="-165" y="911" />
            </Array>
          </mxGeometry>
        </mxCell>
        <mxCell id="IOF8uTJPf_rr452XmYYG-31" value="Micro-Nutrient&lt;br&gt;Tank" style="shape=mxgraph.pid.vessels.tank_(covered);html=1;pointerEvents=1;align=center;verticalLabelPosition=bottom;verticalAlign=top;dashed=0;points=[[0.05,0.75,0,0,0],[0.5,0,0,0,0]];" vertex="1" parent="1">
          <mxGeometry x="-60" y="870" width="40" height="55" as="geometry" />
        </mxCell>
        <mxCell id="IOF8uTJPf_rr452XmYYG-32" style="edgeStyle=orthogonalEdgeStyle;rounded=0;orthogonalLoop=1;jettySize=auto;html=1;exitX=0.67;exitY=0;exitDx=0;exitDy=0;exitPerimeter=0;entryX=0.05;entryY=0.75;entryDx=0;entryDy=0;entryPerimeter=0;endArrow=none;endFill=0;" edge="1" parent="1" source="nhlMVhX39VTh7t-UhzKr-2" target="IOF8uTJPf_rr452XmYYG-31">
          <mxGeometry relative="1" as="geometry">
            <mxPoint x="-83" y="760" as="sourcePoint" />
            <mxPoint x="-57" y="911" as="targetPoint" />
            <Array as="points">
              <mxPoint x="-83" y="740" />
              <mxPoint x="-65" y="740" />
              <mxPoint x="-65" y="911" />
            </Array>
          </mxGeometry>
        </mxCell>
        <mxCell id="IOF8uTJPf_rr452XmYYG-34" value="Ammonium&lt;br&gt;Sulphate&lt;br&gt;Tank" style="shape=mxgraph.pid.vessels.tank_(covered);html=1;pointerEvents=1;align=center;verticalLabelPosition=bottom;verticalAlign=top;dashed=0;points=[[0.05,0.75,0,0,0],[0.5,0,0,0,0]];" vertex="1" parent="1">
          <mxGeometry x="-210.47" y="960" width="40" height="55" as="geometry" />
        </mxCell>
        <mxCell id="IOF8uTJPf_rr452XmYYG-35" style="edgeStyle=orthogonalEdgeStyle;rounded=0;orthogonalLoop=1;jettySize=auto;html=1;exitX=0.67;exitY=0;exitDx=0;exitDy=0;exitPerimeter=0;endArrow=none;endFill=0;entryX=0.05;entryY=0.75;entryDx=0;entryDy=0;entryPerimeter=0;" edge="1" parent="1" source="nhlMVhX39VTh7t-UhzKr-1" target="IOF8uTJPf_rr452XmYYG-36">
          <mxGeometry relative="1" as="geometry">
            <mxPoint x="-136" y="759" as="sourcePoint" />
            <mxPoint x="-110" y="1000" as="targetPoint" />
            <Array as="points">
              <mxPoint x="-133" y="739" />
              <mxPoint x="-115" y="739" />
              <mxPoint x="-115" y="1001" />
              <mxPoint x="-108" y="1001" />
            </Array>
          </mxGeometry>
        </mxCell>
        <mxCell id="IOF8uTJPf_rr452XmYYG-36" value="MAP&lt;br&gt;Tank" style="shape=mxgraph.pid.vessels.tank_(covered);html=1;pointerEvents=1;align=center;verticalLabelPosition=bottom;verticalAlign=top;dashed=0;points=[[0.05,0.75,0,0,0],[0.5,0,0,0,0]];" vertex="1" parent="1">
          <mxGeometry x="-110.32" y="960" width="40" height="55" as="geometry" />
        </mxCell>
        <mxCell id="IOF8uTJPf_rr452XmYYG-38" value="Magnesium&lt;br&gt;Sulphate&lt;br&gt;Tank" style="shape=mxgraph.pid.vessels.tank_(covered);html=1;pointerEvents=1;align=center;verticalLabelPosition=bottom;verticalAlign=top;dashed=0;points=[[0.05,0.75,0,0,0],[0.5,0,0,0,0]];" vertex="1" parent="1">
          <mxGeometry x="-9.999999999999993" y="960" width="40" height="55" as="geometry" />
        </mxCell>
        <mxCell id="IOF8uTJPf_rr452XmYYG-39" style="edgeStyle=orthogonalEdgeStyle;rounded=0;orthogonalLoop=1;jettySize=auto;html=1;exitX=0.67;exitY=0;exitDx=0;exitDy=0;exitPerimeter=0;endArrow=none;endFill=0;entryX=0.05;entryY=0.75;entryDx=0;entryDy=0;entryPerimeter=0;" edge="1" parent="1" source="IOF8uTJPf_rr452XmYYG-7" target="IOF8uTJPf_rr452XmYYG-38">
          <mxGeometry relative="1" as="geometry">
            <mxPoint x="-38.84" y="761" as="sourcePoint" />
            <mxPoint x="-13.840000000000003" y="1002" as="targetPoint" />
            <Array as="points">
              <mxPoint x="-33" y="740" />
              <mxPoint x="-15" y="740" />
              <mxPoint x="-15" y="1001" />
            </Array>
          </mxGeometry>
        </mxCell>
        <mxCell id="Cc5eUVK9kJNkrveM7U8v-64" value="" style="group" parent="1" vertex="1" connectable="0">
          <mxGeometry x="80.00000000000045" y="352.1" width="480" height="662.9" as="geometry" />
        </mxCell>
        <mxCell id="IOF8uTJPf_rr452XmYYG-42" value="Water Purification" style="verticalLabelPosition=top;verticalAlign=bottom;html=1;shape=mxgraph.basic.polygon;polyCoords=[[0.68,0],[0.68,0.18],[0.97,0.18],[0.97,1],[0.72,1],[0.72,0.82],[0.03,0.82],[0.03,0]];polyline=0;fillColor=none;strokeColor=#000ed6;dashed=1;labelPosition=center;align=center;" vertex="1" parent="Cc5eUVK9kJNkrveM7U8v-64">
          <mxGeometry x="-28.63" y="-52.1" width="508.63" height="512.1" as="geometry" />
        </mxCell>
        <mxCell id="oA7SMQpWHTpef_Fw7DRh-6" value="RO Pressure Gauge" style="verticalLabelPosition=top;aspect=fixed;html=1;verticalAlign=bottom;fillColor=strokeColor;align=center;outlineConnect=0;shape=mxgraph.fluid_power.x11820;points=[[0.5,1,0]];labelPosition=center;" parent="Cc5eUVK9kJNkrveM7U8v-64" vertex="1">
          <mxGeometry x="28.829999999999547" y="35.51000000000005" width="37.34" height="56.1" as="geometry" />
        </mxCell>
        <mxCell id="oA7SMQpWHTpef_Fw7DRh-17" value="Supply Water Tank" style="shape=mxgraph.pid.vessels.tank_(covered);html=1;pointerEvents=1;align=center;verticalLabelPosition=bottom;verticalAlign=top;dashed=0;" parent="Cc5eUVK9kJNkrveM7U8v-64" vertex="1">
          <mxGeometry x="356.16999999999956" y="56.31999999999999" width="100" height="75" as="geometry" />
        </mxCell>
        <mxCell id="oA7SMQpWHTpef_Fw7DRh-19" value="Waste Water Tank" style="shape=mxgraph.pid.vessels.tank_(covered);html=1;pointerEvents=1;align=center;verticalLabelPosition=bottom;verticalAlign=top;dashed=0;" parent="Cc5eUVK9kJNkrveM7U8v-64" vertex="1">
          <mxGeometry x="356.16999999999956" y="356.3200000000001" width="100" height="75" as="geometry" />
        </mxCell>
        <mxCell id="oA7SMQpWHTpef_Fw7DRh-20" value="RO Pump" style="shape=mxgraph.pid.pumps_-_din.diaphragm;html=1;pointerEvents=1;align=right;verticalLabelPosition=middle;verticalAlign=middle;dashed=0;rotation=-90;labelPosition=left;horizontal=1;" parent="Cc5eUVK9kJNkrveM7U8v-64" vertex="1">
          <mxGeometry x="86.16999999999958" y="91.61000000000007" width="40" height="40" as="geometry" />
        </mxCell>
        <mxCell id="Cc5eUVK9kJNkrveM7U8v-33" style="edgeStyle=orthogonalEdgeStyle;shape=connector;rounded=0;orthogonalLoop=1;jettySize=auto;html=1;exitX=0.5;exitY=1;exitDx=0;exitDy=0;exitPerimeter=0;entryX=0.5;entryY=0;entryDx=0;entryDy=0;entryPerimeter=0;labelBackgroundColor=default;strokeColor=default;fontFamily=Helvetica;fontSize=11;fontColor=default;endArrow=none;endFill=0;" parent="Cc5eUVK9kJNkrveM7U8v-64" source="oA7SMQpWHTpef_Fw7DRh-6" target="oA7SMQpWHTpef_Fw7DRh-20" edge="1">
          <mxGeometry relative="1" as="geometry" />
        </mxCell>
        <mxCell id="Cc5eUVK9kJNkrveM7U8v-25" style="edgeStyle=orthogonalEdgeStyle;shape=connector;rounded=0;orthogonalLoop=1;jettySize=auto;html=1;exitX=1;exitY=0.71;exitDx=0;exitDy=0;exitPerimeter=0;labelBackgroundColor=default;strokeColor=default;fontFamily=Helvetica;fontSize=11;fontColor=default;endArrow=none;endFill=0;startArrow=none;" parent="Cc5eUVK9kJNkrveM7U8v-64" source="Cc5eUVK9kJNkrveM7U8v-29" target="oA7SMQpWHTpef_Fw7DRh-19" edge="1">
          <mxGeometry relative="1" as="geometry" />
        </mxCell>
        <mxCell id="Cc5eUVK9kJNkrveM7U8v-13" value="RO Filter" style="verticalLabelPosition=top;aspect=fixed;html=1;verticalAlign=bottom;fillColor=strokeColor;align=center;outlineConnect=0;shape=mxgraph.fluid_power.x12210;points=[[0,0.365,0],[1,0.365,0],[0.5,1,0]];fontFamily=Helvetica;fontSize=11;fontColor=default;labelPosition=center;" parent="Cc5eUVK9kJNkrveM7U8v-64" vertex="1">
          <mxGeometry x="199.06999999999954" y="256.9800000000001" width="61.42" height="48.46" as="geometry" />
        </mxCell>
        <mxCell id="Cc5eUVK9kJNkrveM7U8v-18" style="edgeStyle=orthogonalEdgeStyle;shape=connector;rounded=0;orthogonalLoop=1;jettySize=auto;html=1;exitX=0.5;exitY=1;exitDx=0;exitDy=0;exitPerimeter=0;entryX=1;entryY=0.365;entryDx=0;entryDy=0;entryPerimeter=0;labelBackgroundColor=default;strokeColor=default;fontFamily=Helvetica;fontSize=11;fontColor=default;endArrow=none;endFill=0;" parent="Cc5eUVK9kJNkrveM7U8v-64" source="Cc5eUVK9kJNkrveM7U8v-17" target="Cc5eUVK9kJNkrveM7U8v-13" edge="1">
          <mxGeometry relative="1" as="geometry">
            <Array as="points">
              <mxPoint x="283.16999999999956" y="274.32" />
            </Array>
          </mxGeometry>
        </mxCell>
        <mxCell id="Cc5eUVK9kJNkrveM7U8v-17" value="RO Filter" style="verticalLabelPosition=top;aspect=fixed;html=1;verticalAlign=bottom;fillColor=strokeColor;align=center;outlineConnect=0;shape=mxgraph.fluid_power.x12210;points=[[0,0.365,0],[1,0.365,0],[0.5,1,0]];fontFamily=Helvetica;fontSize=11;fontColor=default;labelPosition=center;" parent="Cc5eUVK9kJNkrveM7U8v-64" vertex="1">
          <mxGeometry x="252.06999999999954" y="213.86000000000007" width="61.42" height="48.46" as="geometry" />
        </mxCell>
        <mxCell id="Cc5eUVK9kJNkrveM7U8v-20" value="" style="verticalLabelPosition=bottom;align=center;html=1;verticalAlign=top;pointerEvents=1;dashed=0;shape=mxgraph.pid2valves.valve;valveType=check;fontFamily=Helvetica;fontSize=11;fontColor=default;points=[[0,0.5,0,0,0],[1,0.5,0,0,0]];rotation=-180;" parent="Cc5eUVK9kJNkrveM7U8v-64" vertex="1">
          <mxGeometry x="162.77999999999957" y="220.9400000000001" width="33.47" height="20.08" as="geometry" />
        </mxCell>
        <mxCell id="Cc5eUVK9kJNkrveM7U8v-24" style="edgeStyle=orthogonalEdgeStyle;shape=connector;rounded=0;orthogonalLoop=1;jettySize=auto;html=1;exitX=0;exitY=0.365;exitDx=0;exitDy=0;exitPerimeter=0;labelBackgroundColor=default;strokeColor=default;fontFamily=Helvetica;fontSize=11;fontColor=default;endArrow=none;endFill=0;entryX=0;entryY=0.5;entryDx=0;entryDy=0;entryPerimeter=0;" parent="Cc5eUVK9kJNkrveM7U8v-64" source="Cc5eUVK9kJNkrveM7U8v-17" target="Cc5eUVK9kJNkrveM7U8v-20" edge="1">
          <mxGeometry relative="1" as="geometry">
            <mxPoint x="212.06999999999957" y="202.98000000000008" as="targetPoint" />
          </mxGeometry>
        </mxCell>
        <mxCell id="Cc5eUVK9kJNkrveM7U8v-23" style="edgeStyle=orthogonalEdgeStyle;shape=connector;rounded=0;orthogonalLoop=1;jettySize=auto;html=1;exitX=0;exitY=0.5;exitDx=0;exitDy=0;exitPerimeter=0;entryX=0;entryY=0.365;entryDx=0;entryDy=0;entryPerimeter=0;labelBackgroundColor=default;strokeColor=default;fontFamily=Helvetica;fontSize=11;fontColor=default;endArrow=none;endFill=0;" parent="Cc5eUVK9kJNkrveM7U8v-64" source="Cc5eUVK9kJNkrveM7U8v-22" target="Cc5eUVK9kJNkrveM7U8v-13" edge="1">
          <mxGeometry relative="1" as="geometry" />
        </mxCell>
        <mxCell id="Cc5eUVK9kJNkrveM7U8v-22" value="" style="verticalLabelPosition=bottom;align=center;html=1;verticalAlign=top;pointerEvents=1;dashed=0;shape=mxgraph.pid2valves.valve;valveType=check;fontFamily=Helvetica;fontSize=11;fontColor=default;points=[[0,0.5,0,0,0],[1,0.5,0,0,0]];rotation=-180;" parent="Cc5eUVK9kJNkrveM7U8v-64" vertex="1">
          <mxGeometry x="156.16999999999956" y="264.58" width="33.47" height="20.08" as="geometry" />
        </mxCell>
        <mxCell id="Cc5eUVK9kJNkrveM7U8v-26" value="" style="edgeStyle=orthogonalEdgeStyle;shape=connector;rounded=0;orthogonalLoop=1;jettySize=auto;html=1;exitX=0.5;exitY=1;exitDx=0;exitDy=0;exitPerimeter=0;labelBackgroundColor=default;strokeColor=default;fontFamily=Helvetica;fontSize=11;fontColor=default;endArrow=none;endFill=0;entryX=0.36;entryY=0;entryDx=0;entryDy=0;entryPerimeter=0;" parent="Cc5eUVK9kJNkrveM7U8v-64" source="Cc5eUVK9kJNkrveM7U8v-13" target="oA7SMQpWHTpef_Fw7DRh-15" edge="1">
          <mxGeometry relative="1" as="geometry">
            <mxPoint x="213.06999999999957" y="315.9800000000001" as="sourcePoint" />
            <mxPoint x="132.06999999999957" y="352.9800000000001" as="targetPoint" />
            <Array as="points">
              <mxPoint x="230.16999999999956" y="331.32" />
              <mxPoint x="316.16999999999956" y="331.32" />
              <mxPoint x="316.16999999999956" y="271.32" />
            </Array>
          </mxGeometry>
        </mxCell>
        <mxCell id="Cc5eUVK9kJNkrveM7U8v-38" value="" style="edgeStyle=orthogonalEdgeStyle;shape=connector;rounded=0;orthogonalLoop=1;jettySize=auto;html=1;labelBackgroundColor=default;strokeColor=default;fontFamily=Helvetica;fontSize=11;fontColor=default;endArrow=none;endFill=0;" parent="Cc5eUVK9kJNkrveM7U8v-64" source="Cc5eUVK9kJNkrveM7U8v-35" target="oA7SMQpWHTpef_Fw7DRh-20" edge="1">
          <mxGeometry relative="1" as="geometry" />
        </mxCell>
        <mxCell id="Cc5eUVK9kJNkrveM7U8v-35" value="Carbon" style="verticalLabelPosition=middle;aspect=fixed;html=1;verticalAlign=middle;fillColor=strokeColor;align=center;outlineConnect=0;shape=mxgraph.fluid_power.x11980;points=[[0.5,0,0],[0.5,1,0]];rotation=90;labelPosition=right;horizontal=0;" parent="Cc5eUVK9kJNkrveM7U8v-64" vertex="1">
          <mxGeometry x="149.1599999999995" y="83.73000000000002" width="32.44" height="55.75" as="geometry" />
        </mxCell>
        <mxCell id="Cc5eUVK9kJNkrveM7U8v-39" style="edgeStyle=orthogonalEdgeStyle;shape=connector;rounded=0;orthogonalLoop=1;jettySize=auto;html=1;exitX=0.5;exitY=1;exitDx=0;exitDy=0;exitPerimeter=0;entryX=0.5;entryY=0;entryDx=0;entryDy=0;entryPerimeter=0;labelBackgroundColor=default;strokeColor=default;fontFamily=Helvetica;fontSize=11;fontColor=default;endArrow=none;endFill=0;" parent="Cc5eUVK9kJNkrveM7U8v-64" source="Cc5eUVK9kJNkrveM7U8v-36" target="Cc5eUVK9kJNkrveM7U8v-35" edge="1">
          <mxGeometry relative="1" as="geometry" />
        </mxCell>
        <mxCell id="Cc5eUVK9kJNkrveM7U8v-36" value="GAC" style="verticalLabelPosition=middle;aspect=fixed;html=1;verticalAlign=middle;fillColor=strokeColor;align=center;outlineConnect=0;shape=mxgraph.fluid_power.x11980;points=[[0.5,0,0],[0.5,1,0]];rotation=90;labelPosition=right;horizontal=0;" parent="Cc5eUVK9kJNkrveM7U8v-64" vertex="1">
          <mxGeometry x="221.87999999999954" y="83.74000000000001" width="32.44" height="55.75" as="geometry" />
        </mxCell>
        <mxCell id="Cc5eUVK9kJNkrveM7U8v-40" style="edgeStyle=orthogonalEdgeStyle;shape=connector;rounded=0;orthogonalLoop=1;jettySize=auto;html=1;exitX=0.5;exitY=1;exitDx=0;exitDy=0;exitPerimeter=0;entryX=0.5;entryY=0;entryDx=0;entryDy=0;entryPerimeter=0;labelBackgroundColor=default;strokeColor=default;fontFamily=Helvetica;fontSize=11;fontColor=default;endArrow=none;endFill=0;" parent="Cc5eUVK9kJNkrveM7U8v-64" source="Cc5eUVK9kJNkrveM7U8v-37" target="Cc5eUVK9kJNkrveM7U8v-36" edge="1">
          <mxGeometry relative="1" as="geometry" />
        </mxCell>
        <mxCell id="Cc5eUVK9kJNkrveM7U8v-56" style="edgeStyle=orthogonalEdgeStyle;shape=connector;rounded=0;orthogonalLoop=1;jettySize=auto;html=1;exitX=0.5;exitY=0;exitDx=0;exitDy=0;exitPerimeter=0;entryX=0.044;entryY=0.74;entryDx=0;entryDy=0;entryPerimeter=0;labelBackgroundColor=default;strokeColor=default;fontFamily=Helvetica;fontSize=11;fontColor=default;endArrow=none;endFill=0;" parent="Cc5eUVK9kJNkrveM7U8v-64" source="Cc5eUVK9kJNkrveM7U8v-37" target="oA7SMQpWHTpef_Fw7DRh-17" edge="1">
          <mxGeometry relative="1" as="geometry" />
        </mxCell>
        <mxCell id="Cc5eUVK9kJNkrveM7U8v-37" value="Sediment" style="verticalLabelPosition=middle;aspect=fixed;html=1;verticalAlign=middle;fillColor=strokeColor;align=center;outlineConnect=0;shape=mxgraph.fluid_power.x11980;points=[[0.5,0,0],[0.5,1,0]];rotation=90;labelPosition=right;horizontal=0;" parent="Cc5eUVK9kJNkrveM7U8v-64" vertex="1">
          <mxGeometry x="291.87999999999954" y="83.74000000000001" width="32.44" height="55.75" as="geometry" />
        </mxCell>
        <mxCell id="Cc5eUVK9kJNkrveM7U8v-54" value="" style="group" parent="Cc5eUVK9kJNkrveM7U8v-64" vertex="1" connectable="0">
          <mxGeometry x="46.16999999999955" y="200.13999999999993" width="62.72" height="40.879999999999995" as="geometry" />
        </mxCell>
        <mxCell id="Cc5eUVK9kJNkrveM7U8v-42" value="Auto shutoff Valve" style="rounded=0;whiteSpace=wrap;html=1;fontFamily=Helvetica;fontSize=11;fontColor=default;labelPosition=center;verticalLabelPosition=bottom;align=center;verticalAlign=top;strokeWidth=2;" parent="Cc5eUVK9kJNkrveM7U8v-54" vertex="1">
          <mxGeometry width="62.72" height="40.88" as="geometry" />
        </mxCell>
        <mxCell id="Cc5eUVK9kJNkrveM7U8v-49" style="edgeStyle=orthogonalEdgeStyle;shape=connector;rounded=0;orthogonalLoop=1;jettySize=auto;html=1;exitX=0;exitY=0.75;exitDx=0;exitDy=0;entryX=0.662;entryY=0.132;entryDx=0;entryDy=0;entryPerimeter=0;labelBackgroundColor=default;strokeColor=default;fontFamily=Helvetica;fontSize=11;fontColor=default;endArrow=none;endFill=0;" parent="Cc5eUVK9kJNkrveM7U8v-54" source="Cc5eUVK9kJNkrveM7U8v-42" target="Cc5eUVK9kJNkrveM7U8v-46" edge="1">
          <mxGeometry relative="1" as="geometry" />
        </mxCell>
        <mxCell id="Cc5eUVK9kJNkrveM7U8v-50" style="edgeStyle=orthogonalEdgeStyle;shape=connector;rounded=0;orthogonalLoop=1;jettySize=auto;html=1;exitX=1;exitY=0.75;exitDx=0;exitDy=0;entryX=0.335;entryY=0.166;entryDx=0;entryDy=0;entryPerimeter=0;labelBackgroundColor=default;strokeColor=default;fontFamily=Helvetica;fontSize=11;fontColor=default;endArrow=none;endFill=0;" parent="Cc5eUVK9kJNkrveM7U8v-54" source="Cc5eUVK9kJNkrveM7U8v-42" target="Cc5eUVK9kJNkrveM7U8v-46" edge="1">
          <mxGeometry relative="1" as="geometry" />
        </mxCell>
        <mxCell id="Cc5eUVK9kJNkrveM7U8v-48" style="edgeStyle=orthogonalEdgeStyle;shape=connector;rounded=0;orthogonalLoop=1;jettySize=auto;html=1;exitX=1;exitY=0.25;exitDx=0;exitDy=0;entryX=0.005;entryY=0.743;entryDx=0;entryDy=0;entryPerimeter=0;labelBackgroundColor=default;strokeColor=default;fontFamily=Helvetica;fontSize=11;fontColor=default;endArrow=none;endFill=0;" parent="Cc5eUVK9kJNkrveM7U8v-54" source="Cc5eUVK9kJNkrveM7U8v-42" target="Cc5eUVK9kJNkrveM7U8v-46" edge="1">
          <mxGeometry relative="1" as="geometry" />
        </mxCell>
        <mxCell id="Cc5eUVK9kJNkrveM7U8v-47" style="edgeStyle=orthogonalEdgeStyle;shape=connector;rounded=0;orthogonalLoop=1;jettySize=auto;html=1;exitX=0;exitY=0.25;exitDx=0;exitDy=0;entryX=1.003;entryY=0.748;entryDx=0;entryDy=0;entryPerimeter=0;labelBackgroundColor=default;strokeColor=default;fontFamily=Helvetica;fontSize=11;fontColor=default;endArrow=none;endFill=0;" parent="Cc5eUVK9kJNkrveM7U8v-54" source="Cc5eUVK9kJNkrveM7U8v-42" target="Cc5eUVK9kJNkrveM7U8v-46" edge="1">
          <mxGeometry relative="1" as="geometry" />
        </mxCell>
        <mxCell id="Cc5eUVK9kJNkrveM7U8v-46" value="" style="verticalLabelPosition=bottom;align=center;html=1;verticalAlign=top;pointerEvents=1;dashed=0;shape=mxgraph.pid2valves.valve;valveType=gate;actuator=diaph;fontFamily=Helvetica;fontSize=11;fontColor=default;rotation=-180;" parent="Cc5eUVK9kJNkrveM7U8v-54" vertex="1">
          <mxGeometry x="17.53" y="3.169999999999959" width="27.66" height="27.66" as="geometry" />
        </mxCell>
        <mxCell id="Cc5eUVK9kJNkrveM7U8v-51" value="In" style="text;strokeColor=none;align=center;fillColor=none;html=1;verticalAlign=middle;whiteSpace=wrap;rounded=0;fontSize=6;fontFamily=Helvetica;fontColor=default;spacing=0;" parent="Cc5eUVK9kJNkrveM7U8v-54" vertex="1">
          <mxGeometry y="3.170000000000016" width="10" height="5.75" as="geometry" />
        </mxCell>
        <mxCell id="Cc5eUVK9kJNkrveM7U8v-53" value="Out" style="text;strokeColor=none;align=center;fillColor=none;html=1;verticalAlign=middle;whiteSpace=wrap;rounded=0;fontSize=6;fontFamily=Helvetica;fontColor=default;spacing=0;" parent="Cc5eUVK9kJNkrveM7U8v-54" vertex="1">
          <mxGeometry x="52.72" y="3.170000000000016" width="7" height="5.75" as="geometry" />
        </mxCell>
        <mxCell id="Cc5eUVK9kJNkrveM7U8v-45" style="edgeStyle=orthogonalEdgeStyle;shape=connector;rounded=0;orthogonalLoop=1;jettySize=auto;html=1;exitX=0.5;exitY=0;exitDx=0;exitDy=0;exitPerimeter=0;entryX=0;entryY=0.25;entryDx=0;entryDy=0;labelBackgroundColor=default;strokeColor=default;fontFamily=Helvetica;fontSize=11;fontColor=default;endArrow=none;endFill=0;" parent="Cc5eUVK9kJNkrveM7U8v-64" source="oA7SMQpWHTpef_Fw7DRh-20" target="Cc5eUVK9kJNkrveM7U8v-42" edge="1">
          <mxGeometry relative="1" as="geometry" />
        </mxCell>
        <mxCell id="Cc5eUVK9kJNkrveM7U8v-32" style="edgeStyle=orthogonalEdgeStyle;shape=connector;rounded=0;orthogonalLoop=1;jettySize=auto;html=1;exitX=1;exitY=0.365;exitDx=0;exitDy=0;exitPerimeter=0;entryX=1;entryY=0.25;entryDx=0;entryDy=0;labelBackgroundColor=default;strokeColor=default;fontFamily=Helvetica;fontSize=11;fontColor=default;endArrow=none;endFill=0;" parent="Cc5eUVK9kJNkrveM7U8v-64" source="Cc5eUVK9kJNkrveM7U8v-17" target="Cc5eUVK9kJNkrveM7U8v-42" edge="1">
          <mxGeometry relative="1" as="geometry">
            <Array as="points">
              <mxPoint x="333.16999999999956" y="231.32" />
              <mxPoint x="333.16999999999956" y="194.32" />
              <mxPoint x="126.16999999999955" y="194.32" />
              <mxPoint x="126.16999999999955" y="210.32" />
            </Array>
          </mxGeometry>
        </mxCell>
        <mxCell id="Cc5eUVK9kJNkrveM7U8v-44" style="edgeStyle=orthogonalEdgeStyle;shape=connector;rounded=0;orthogonalLoop=1;jettySize=auto;html=1;exitX=1;exitY=0.5;exitDx=0;exitDy=0;exitPerimeter=0;labelBackgroundColor=default;strokeColor=default;fontFamily=Helvetica;fontSize=11;fontColor=default;endArrow=none;endFill=0;entryX=1;entryY=0.75;entryDx=0;entryDy=0;" parent="Cc5eUVK9kJNkrveM7U8v-64" source="Cc5eUVK9kJNkrveM7U8v-20" target="Cc5eUVK9kJNkrveM7U8v-42" edge="1">
          <mxGeometry relative="1" as="geometry">
            <mxPoint x="116.16999999999955" y="194.12999999999994" as="targetPoint" />
          </mxGeometry>
        </mxCell>
        <mxCell id="Cc5eUVK9kJNkrveM7U8v-43" style="edgeStyle=orthogonalEdgeStyle;shape=connector;rounded=0;orthogonalLoop=1;jettySize=auto;html=1;exitX=1;exitY=0.5;exitDx=0;exitDy=0;exitPerimeter=0;entryX=1;entryY=0.75;entryDx=0;entryDy=0;labelBackgroundColor=default;strokeColor=default;fontFamily=Helvetica;fontSize=11;fontColor=default;endArrow=none;endFill=0;" parent="Cc5eUVK9kJNkrveM7U8v-64" source="Cc5eUVK9kJNkrveM7U8v-22" target="Cc5eUVK9kJNkrveM7U8v-42" edge="1">
          <mxGeometry relative="1" as="geometry" />
        </mxCell>
        <mxCell id="Cc5eUVK9kJNkrveM7U8v-58" style="edgeStyle=orthogonalEdgeStyle;shape=connector;rounded=0;orthogonalLoop=1;jettySize=auto;html=1;exitX=0;exitY=0.58;exitDx=0;exitDy=0;exitPerimeter=0;entryX=0.5;entryY=1;entryDx=0;entryDy=0;entryPerimeter=0;labelBackgroundColor=default;strokeColor=default;fontFamily=Helvetica;fontSize=11;fontColor=default;endArrow=none;endFill=0;" parent="Cc5eUVK9kJNkrveM7U8v-64" source="Cc5eUVK9kJNkrveM7U8v-57" target="Cc5eUVK9kJNkrveM7U8v-37" edge="1">
          <mxGeometry relative="1" as="geometry">
            <Array as="points">
              <mxPoint x="273.16999999999956" y="111.32" />
            </Array>
          </mxGeometry>
        </mxCell>
        <mxCell id="Cc5eUVK9kJNkrveM7U8v-57" value="RO Pump&lt;br&gt;Low pressure switch" style="verticalLabelPosition=top;aspect=fixed;html=1;verticalAlign=bottom;fillColor=strokeColor;align=center;outlineConnect=0;shape=mxgraph.fluid_power.x11750;points=[[0,0.58,0]];fontFamily=Helvetica;fontSize=11;fontColor=default;rotation=-90;labelPosition=center;horizontal=1;" parent="Cc5eUVK9kJNkrveM7U8v-64" vertex="1">
          <mxGeometry x="234.04999999999956" y="13.829999999999984" width="70.4" height="42.74" as="geometry" />
        </mxCell>
        <mxCell id="Cc5eUVK9kJNkrveM7U8v-62" style="edgeStyle=orthogonalEdgeStyle;shape=connector;rounded=0;orthogonalLoop=1;jettySize=auto;html=1;exitX=0;exitY=0.58;exitDx=0;exitDy=0;exitPerimeter=0;entryX=0;entryY=0.75;entryDx=0;entryDy=0;labelBackgroundColor=default;strokeColor=default;fontFamily=Helvetica;fontSize=11;fontColor=default;endArrow=none;endFill=0;" parent="Cc5eUVK9kJNkrveM7U8v-64" source="Cc5eUVK9kJNkrveM7U8v-61" target="Cc5eUVK9kJNkrveM7U8v-42" edge="1">
          <mxGeometry relative="1" as="geometry" />
        </mxCell>
        <mxCell id="Cc5eUVK9kJNkrveM7U8v-61" value="RO Pump &lt;br&gt;High Pressure Switch" style="verticalLabelPosition=bottom;aspect=fixed;html=1;verticalAlign=top;fillColor=strokeColor;align=left;outlineConnect=0;shape=mxgraph.fluid_power.x11750;points=[[0,0.58,0]];fontFamily=Helvetica;fontSize=11;fontColor=default;rotation=90;labelPosition=right;horizontal=0;" parent="Cc5eUVK9kJNkrveM7U8v-64" vertex="1">
          <mxGeometry x="-13.829999999999995" y="275.27000000000004" width="70.4" height="42.74" as="geometry" />
        </mxCell>
        <mxCell id="Cc5eUVK9kJNkrveM7U8v-63" value="" style="group;rotation=-90;" parent="Cc5eUVK9kJNkrveM7U8v-64" vertex="1" connectable="0">
          <mxGeometry x="313.3199999999995" y="259.07" width="93.84000000000009" height="75.13999999999999" as="geometry" />
        </mxCell>
        <mxCell id="oA7SMQpWHTpef_Fw7DRh-15" value="" style="verticalLabelPosition=bottom;aspect=fixed;html=1;verticalAlign=top;fillColor=strokeColor;align=center;outlineConnect=0;shape=mxgraph.fluid_power.x10630;points=[[0.36,0,0],[0.36,1,0]];rotation=-90;" parent="Cc5eUVK9kJNkrveM7U8v-63" vertex="1">
          <mxGeometry x="30" y="-30" width="33.98" height="75.14" as="geometry" />
        </mxCell>
        <mxCell id="Cc5eUVK9kJNkrveM7U8v-29" value="" style="verticalLabelPosition=bottom;align=center;html=1;verticalAlign=top;pointerEvents=1;dashed=0;shape=mxgraph.pid2valves.valve;valveType=gate;actuator=man;fontFamily=Helvetica;fontSize=11;fontColor=default;points=[[0,0.71,0,0,0],[1,0.71,0,0,0]];rotation=0;" parent="Cc5eUVK9kJNkrveM7U8v-63" vertex="1">
          <mxGeometry x="26" y="43" width="41.86" height="41.86" as="geometry" />
        </mxCell>
        <mxCell id="Cc5eUVK9kJNkrveM7U8v-31" style="edgeStyle=orthogonalEdgeStyle;shape=connector;rounded=0;orthogonalLoop=1;jettySize=auto;html=1;exitX=1;exitY=0.71;exitDx=0;exitDy=0;exitPerimeter=0;entryX=0.36;entryY=1;entryDx=0;entryDy=0;entryPerimeter=0;labelBackgroundColor=default;strokeColor=default;fontFamily=Helvetica;fontSize=11;fontColor=default;endArrow=none;endFill=0;" parent="Cc5eUVK9kJNkrveM7U8v-63" source="Cc5eUVK9kJNkrveM7U8v-29" target="oA7SMQpWHTpef_Fw7DRh-15" edge="1">
          <mxGeometry relative="1" as="geometry">
            <Array as="points">
              <mxPoint x="93" y="73" />
              <mxPoint x="93" y="12" />
            </Array>
          </mxGeometry>
        </mxCell>
        <mxCell id="Cc5eUVK9kJNkrveM7U8v-30" style="edgeStyle=orthogonalEdgeStyle;shape=connector;rounded=0;orthogonalLoop=1;jettySize=auto;html=1;exitX=0.5;exitY=1;exitDx=0;exitDy=0;exitPerimeter=0;entryX=0;entryY=0.71;entryDx=0;entryDy=0;entryPerimeter=0;labelBackgroundColor=default;strokeColor=default;fontFamily=Helvetica;fontSize=11;fontColor=default;endArrow=none;endFill=0;" parent="Cc5eUVK9kJNkrveM7U8v-64" source="Cc5eUVK9kJNkrveM7U8v-13" target="Cc5eUVK9kJNkrveM7U8v-29" edge="1">
          <mxGeometry relative="1" as="geometry" />
        </mxCell>
        <mxCell id="IOF8uTJPf_rr452XmYYG-43" value="" style="shape=mxgraph.pid.pumps.peristaltic;html=1;pointerEvents=1;align=center;verticalLabelPosition=bottom;verticalAlign=top;dashed=0;points=[[0.33,0,0,0,0],[0.5,1,0,0,0],[0.67,0,0,0,0]];" vertex="1" parent="Cc5eUVK9kJNkrveM7U8v-64">
          <mxGeometry x="-90.00000000000045" y="407.9" width="40" height="46" as="geometry" />
        </mxCell>
        <mxCell id="IOF8uTJPf_rr452XmYYG-44" value="" style="shape=mxgraph.pid.pumps.peristaltic;html=1;pointerEvents=1;align=center;verticalLabelPosition=bottom;verticalAlign=top;dashed=0;points=[[0.33,0,0,0,0],[0.5,1,0,0,0],[0.67,0,0,0,0]];" vertex="1" parent="Cc5eUVK9kJNkrveM7U8v-64">
          <mxGeometry x="-40.250000000000455" y="407.9" width="40" height="46" as="geometry" />
        </mxCell>
        <mxCell id="IOF8uTJPf_rr452XmYYG-45" style="edgeStyle=orthogonalEdgeStyle;rounded=0;orthogonalLoop=1;jettySize=auto;html=1;exitX=0.67;exitY=0;exitDx=0;exitDy=0;exitPerimeter=0;entryX=0.05;entryY=0.75;entryDx=0;entryDy=0;entryPerimeter=0;endArrow=none;endFill=0;" edge="1" source="IOF8uTJPf_rr452XmYYG-43" target="IOF8uTJPf_rr452XmYYG-47" parent="Cc5eUVK9kJNkrveM7U8v-64">
          <mxGeometry relative="1" as="geometry">
            <mxPoint x="-63.000000000000455" y="407.9" as="sourcePoint" />
            <mxPoint x="-37.000000000000455" y="558.9" as="targetPoint" />
            <Array as="points">
              <mxPoint x="-63.000000000000455" y="387.9" />
              <mxPoint x="-45.000000000000455" y="387.9" />
              <mxPoint x="-45.000000000000455" y="558.9" />
            </Array>
          </mxGeometry>
        </mxCell>
        <mxCell id="IOF8uTJPf_rr452XmYYG-46" style="edgeStyle=orthogonalEdgeStyle;rounded=0;orthogonalLoop=1;jettySize=auto;html=1;exitX=0.67;exitY=0;exitDx=0;exitDy=0;exitPerimeter=0;endArrow=none;endFill=0;entryX=0.05;entryY=0.75;entryDx=0;entryDy=0;entryPerimeter=0;" edge="1" source="IOF8uTJPf_rr452XmYYG-44" target="IOF8uTJPf_rr452XmYYG-48" parent="Cc5eUVK9kJNkrveM7U8v-64">
          <mxGeometry relative="1" as="geometry">
            <mxPoint x="-18.840000000000458" y="408.9" as="sourcePoint" />
            <mxPoint x="6.159999999999542" y="649.9" as="targetPoint" />
            <Array as="points">
              <mxPoint x="-13.000000000000455" y="387.9" />
              <mxPoint x="4.999999999999545" y="387.9" />
              <mxPoint x="4.999999999999545" y="648.9" />
            </Array>
          </mxGeometry>
        </mxCell>
        <mxCell id="IOF8uTJPf_rr452XmYYG-47" value="pH Up&lt;br&gt;Tank" style="shape=mxgraph.pid.vessels.tank_(covered);html=1;pointerEvents=1;align=center;verticalLabelPosition=bottom;verticalAlign=top;dashed=0;points=[[0.05,0.75,0,0,0],[0.5,0,0,0,0]];" vertex="1" parent="Cc5eUVK9kJNkrveM7U8v-64">
          <mxGeometry x="-40.000000000000455" y="517.9" width="40" height="55" as="geometry" />
        </mxCell>
        <mxCell id="IOF8uTJPf_rr452XmYYG-48" value="pH Down&lt;br&gt;Tank" style="shape=mxgraph.pid.vessels.tank_(covered);html=1;pointerEvents=1;align=center;verticalLabelPosition=bottom;verticalAlign=top;dashed=0;points=[[0.05,0.75,0,0,0],[0.5,0,0,0,0]];" vertex="1" parent="Cc5eUVK9kJNkrveM7U8v-64">
          <mxGeometry x="9.999999999999545" y="607.9" width="40" height="55" as="geometry" />
        </mxCell>
        <mxCell id="IOF8uTJPf_rr452XmYYG-49" value="" style="verticalLabelPosition=bottom;align=center;html=1;verticalAlign=top;pointerEvents=1;dashed=0;shape=mxgraph.pid2valves.valve;valveType=check;fontFamily=Helvetica;fontSize=11;fontColor=default;points=[[0,0.5,0,0,0],[1,0.5,0,0,0]];rotation=90;" vertex="1" parent="Cc5eUVK9kJNkrveM7U8v-64">
          <mxGeometry x="-30.00000000000047" y="497.9" width="19.99" height="10" as="geometry" />
        </mxCell>
        <mxCell id="IOF8uTJPf_rr452XmYYG-50" value="" style="verticalLabelPosition=bottom;align=center;html=1;verticalAlign=top;pointerEvents=1;dashed=0;shape=mxgraph.pid2valves.valve;valveType=check;fontFamily=Helvetica;fontSize=11;fontColor=default;points=[[0,0.5,0,0,0],[1,0.5,0,0,0]];rotation=90;" vertex="1" parent="Cc5eUVK9kJNkrveM7U8v-64">
          <mxGeometry x="19.999999999999545" y="587.9" width="19.99" height="10" as="geometry" />
        </mxCell>
        <mxCell id="IOF8uTJPf_rr452XmYYG-51" style="edgeStyle=orthogonalEdgeStyle;rounded=0;orthogonalLoop=1;jettySize=auto;html=1;exitX=0.33;exitY=0;exitDx=0;exitDy=0;exitPerimeter=0;entryX=0.8;entryY=0;entryDx=0;entryDy=0;entryPerimeter=0;endArrow=none;endFill=0;" edge="1" parent="1" source="IOF8uTJPf_rr452XmYYG-43" target="oA7SMQpWHTpef_Fw7DRh-11">
          <mxGeometry relative="1" as="geometry" />
        </mxCell>
        <mxCell id="IOF8uTJPf_rr452XmYYG-52" style="edgeStyle=orthogonalEdgeStyle;rounded=0;orthogonalLoop=1;jettySize=auto;html=1;exitX=0.33;exitY=0;exitDx=0;exitDy=0;exitPerimeter=0;entryX=0.8;entryY=0;entryDx=0;entryDy=0;entryPerimeter=0;endArrow=none;endFill=0;" edge="1" parent="1" source="IOF8uTJPf_rr452XmYYG-44" target="oA7SMQpWHTpef_Fw7DRh-11">
          <mxGeometry relative="1" as="geometry">
            <mxPoint x="180" y="790" as="targetPoint" />
          </mxGeometry>
        </mxCell>
      </root>
    </mxGraphModel>
  </diagram>
</mxfile>
